solid Micro Clip 5mm - 2014-07-29
   facet normal -1.000000e+000 -2.224004e-016 -7.765070e-031
      outer loop
         vertex 2.180064e+001 1.500000e+000 5.000000e+000
         vertex 2.180064e+001 9.300000e+000 5.000000e+000
         vertex 2.180064e+001 1.500000e+000 5.237222e-015
      endloop
   endfacet
   facet normal -1.000000e+000 -2.224004e-016 -7.765070e-031
      outer loop
         vertex 2.180064e+001 1.500000e+000 5.237222e-015
         vertex 2.180064e+001 9.300000e+000 5.000000e+000
         vertex 2.180064e+001 9.300000e+000 3.247078e-014
      endloop
   endfacet
   facet normal -2.309351e-015 1.000000e+000 3.491481e-015
      outer loop
         vertex 1.800639e+000 1.500000e+000 5.000000e+000
         vertex 2.180064e+001 1.500000e+000 5.000000e+000
         vertex 1.800639e+000 1.500000e+000 5.237222e-015
      endloop
   endfacet
   facet normal -2.309351e-015 1.000000e+000 3.491481e-015
      outer loop
         vertex 1.800639e+000 1.500000e+000 5.237222e-015
         vertex 2.180064e+001 1.500000e+000 5.000000e+000
         vertex 2.180064e+001 1.500000e+000 5.237222e-015
      endloop
   endfacet
   facet normal 1.000000e+000 4.225609e-015 1.475363e-029
      outer loop
         vertex 1.800639e+000 9.300000e+000 5.000000e+000
         vertex 1.800639e+000 1.500000e+000 5.000000e+000
         vertex 1.800639e+000 9.300000e+000 3.247078e-014
      endloop
   endfacet
   facet normal 1.000000e+000 4.225609e-015 1.475363e-029
      outer loop
         vertex 1.800639e+000 9.300000e+000 3.247078e-014
         vertex 1.800639e+000 1.500000e+000 5.000000e+000
         vertex 1.800639e+000 1.500000e+000 5.237222e-015
      endloop
   endfacet
   facet normal 4.857226e-015 -1.000000e+000 -3.491481e-015
      outer loop
         vertex 4.300639e+000 9.300000e+000 5.000000e+000
         vertex 1.800639e+000 9.300000e+000 5.000000e+000
         vertex 4.300639e+000 9.300000e+000 3.247078e-014
      endloop
   endfacet
   facet normal 4.857226e-015 -1.000000e+000 -3.491481e-015
      outer loop
         vertex 4.300639e+000 9.300000e+000 3.247078e-014
         vertex 1.800639e+000 9.300000e+000 5.000000e+000
         vertex 1.800639e+000 9.300000e+000 3.247078e-014
      endloop
   endfacet
   facet normal 1.000000e+000 4.625929e-015 1.615135e-029
      outer loop
         vertex 4.300639e+000 1.230000e+001 5.000000e+000
         vertex 4.300639e+000 9.300000e+000 5.000000e+000
         vertex 4.300639e+000 1.230000e+001 4.294522e-014
      endloop
   endfacet
   facet normal 1.000000e+000 4.625929e-015 1.615135e-029
      outer loop
         vertex 4.300639e+000 1.230000e+001 4.294522e-014
         vertex 4.300639e+000 9.300000e+000 5.000000e+000
         vertex 4.300639e+000 9.300000e+000 3.247078e-014
      endloop
   endfacet
   facet normal 8.806072e-001 4.738470e-001 1.654428e-015
      outer loop
         vertex 3.116838e+000 1.450000e+001 5.000000e+000
         vertex 4.300639e+000 1.230000e+001 5.000000e+000
         vertex 3.116838e+000 1.450000e+001 5.062648e-014
      endloop
   endfacet
   facet normal 8.806072e-001 4.738470e-001 1.654428e-015
      outer loop
         vertex 3.116838e+000 1.450000e+001 5.062648e-014
         vertex 4.300639e+000 1.230000e+001 5.000000e+000
         vertex 4.300639e+000 1.230000e+001 4.294522e-014
      endloop
   endfacet
   facet normal -4.047688e-015 1.000000e+000 3.491481e-015
      outer loop
         vertex 1.168381e-001 1.450000e+001 5.000000e+000
         vertex 3.116838e+000 1.450000e+001 5.000000e+000
         vertex 1.168381e-001 1.450000e+001 5.062648e-014
      endloop
   endfacet
   facet normal -4.047688e-015 1.000000e+000 3.491481e-015
      outer loop
         vertex 1.168381e-001 1.450000e+001 5.062648e-014
         vertex 3.116838e+000 1.450000e+001 5.000000e+000
         vertex 3.116838e+000 1.450000e+001 5.062648e-014
      endloop
   endfacet
   facet normal -1.000000e+000 -4.426536e-015 -1.545517e-029
      outer loop
         vertex 1.168381e-001 1.673840e-016 5.000000e+000
         vertex 1.168381e-001 1.450000e+001 5.000000e+000
         vertex 1.168381e-001 1.762479e-014 -1.892736e-028
      endloop
   endfacet
   facet normal -1.000000e+000 -4.426536e-015 -1.545517e-029
      outer loop
         vertex 1.168381e-001 1.762479e-014 -1.892736e-028
         vertex 1.168381e-001 1.450000e+001 5.000000e+000
         vertex 1.168381e-001 1.450000e+001 5.062648e-014
      endloop
   endfacet
   facet normal 2.319883e-015 -1.000000e+000 -3.491481e-015
      outer loop
         vertex 2.348444e+001 5.437749e-014 5.000000e+000
         vertex 1.168381e-001 1.673840e-016 5.000000e+000
         vertex 2.348444e+001 7.183490e-014 0.000000e+000
      endloop
   endfacet
   facet normal 2.319883e-015 -1.000000e+000 -3.491481e-015
      outer loop
         vertex 2.348444e+001 7.183490e-014 0.000000e+000
         vertex 1.168381e-001 1.673840e-016 5.000000e+000
         vertex 1.168381e-001 1.762479e-014 -1.892736e-028
      endloop
   endfacet
   facet normal 1.000000e+000 1.196361e-016 4.177072e-031
      outer loop
         vertex 2.348444e+001 1.450000e+001 5.000000e+000
         vertex 2.348444e+001 5.437749e-014 5.000000e+000
         vertex 2.348444e+001 1.450000e+001 5.062648e-014
      endloop
   endfacet
   facet normal 1.000000e+000 1.196361e-016 4.177072e-031
      outer loop
         vertex 2.348444e+001 1.450000e+001 5.062648e-014
         vertex 2.348444e+001 5.437749e-014 5.000000e+000
         vertex 2.348444e+001 7.183490e-014 0.000000e+000
      endloop
   endfacet
   facet normal -5.782412e-016 1.000000e+000 3.491481e-015
      outer loop
         vertex 2.048444e+001 1.450000e+001 5.000000e+000
         vertex 2.348444e+001 1.450000e+001 5.000000e+000
         vertex 2.048444e+001 1.450000e+001 5.062648e-014
      endloop
   endfacet
   facet normal -5.782412e-016 1.000000e+000 3.491481e-015
      outer loop
         vertex 2.048444e+001 1.450000e+001 5.062648e-014
         vertex 2.348444e+001 1.450000e+001 5.000000e+000
         vertex 2.348444e+001 1.450000e+001 5.062648e-014
      endloop
   endfacet
   facet normal -8.806072e-001 4.738470e-001 1.654428e-015
      outer loop
         vertex 1.930064e+001 1.230000e+001 5.000000e+000
         vertex 2.048444e+001 1.450000e+001 5.000000e+000
         vertex 1.930064e+001 1.230000e+001 4.294522e-014
      endloop
   endfacet
   facet normal -8.806072e-001 4.738470e-001 1.654428e-015
      outer loop
         vertex 1.930064e+001 1.230000e+001 4.294522e-014
         vertex 2.048444e+001 1.450000e+001 5.000000e+000
         vertex 2.048444e+001 1.450000e+001 5.062648e-014
      endloop
   endfacet
   facet normal -1.000000e+000 -0.000000e+000 0.000000e+000
      outer loop
         vertex 1.930064e+001 9.300000e+000 5.000000e+000
         vertex 1.930064e+001 1.230000e+001 5.000000e+000
         vertex 1.930064e+001 9.300000e+000 3.247078e-014
      endloop
   endfacet
   facet normal -1.000000e+000 -0.000000e+000 0.000000e+000
      outer loop
         vertex 1.930064e+001 9.300000e+000 3.247078e-014
         vertex 1.930064e+001 1.230000e+001 5.000000e+000
         vertex 1.930064e+001 1.230000e+001 4.294522e-014
      endloop
   endfacet
   facet normal 0.000000e+000 -1.000000e+000 -3.491481e-015
      outer loop
         vertex 2.180064e+001 9.300000e+000 5.000000e+000
         vertex 1.930064e+001 9.300000e+000 5.000000e+000
         vertex 2.180064e+001 9.300000e+000 3.247078e-014
      endloop
   endfacet
   facet normal 0.000000e+000 -1.000000e+000 -3.491481e-015
      outer loop
         vertex 2.180064e+001 9.300000e+000 3.247078e-014
         vertex 1.930064e+001 9.300000e+000 5.000000e+000
         vertex 1.930064e+001 9.300000e+000 3.247078e-014
      endloop
   endfacet
   facet normal 0.000000e+000 -3.491481e-015 1.000000e+000
      outer loop
         vertex 1.930064e+001 1.230000e+001 5.000000e+000
         vertex 1.930064e+001 9.300000e+000 5.000000e+000
         vertex 2.180064e+001 9.300000e+000 5.000000e+000
      endloop
   endfacet
   facet normal 0.000000e+000 -3.491481e-015 1.000000e+000
      outer loop
         vertex 1.800639e+000 9.300000e+000 5.000000e+000
         vertex 1.168381e-001 1.450000e+001 5.000000e+000
         vertex 1.168381e-001 1.673840e-016 5.000000e+000
      endloop
   endfacet
   facet normal 0.000000e+000 -3.491481e-015 1.000000e+000
      outer loop
         vertex 3.116838e+000 1.450000e+001 5.000000e+000
         vertex 1.168381e-001 1.450000e+001 5.000000e+000
         vertex 4.300639e+000 1.230000e+001 5.000000e+000
      endloop
   endfacet
   facet normal 0.000000e+000 -3.491481e-015 1.000000e+000
      outer loop
         vertex 4.300639e+000 1.230000e+001 5.000000e+000
         vertex 1.168381e-001 1.450000e+001 5.000000e+000
         vertex 1.800639e+000 9.300000e+000 5.000000e+000
      endloop
   endfacet
   facet normal 0.000000e+000 -3.491481e-015 1.000000e+000
      outer loop
         vertex 4.300639e+000 1.230000e+001 5.000000e+000
         vertex 1.800639e+000 9.300000e+000 5.000000e+000
         vertex 4.300639e+000 9.300000e+000 5.000000e+000
      endloop
   endfacet
   facet normal 0.000000e+000 -3.491481e-015 1.000000e+000
      outer loop
         vertex 2.048444e+001 1.450000e+001 5.000000e+000
         vertex 1.930064e+001 1.230000e+001 5.000000e+000
         vertex 2.348444e+001 1.450000e+001 5.000000e+000
      endloop
   endfacet
   facet normal 0.000000e+000 -3.491481e-015 1.000000e+000
      outer loop
         vertex 2.348444e+001 1.450000e+001 5.000000e+000
         vertex 1.930064e+001 1.230000e+001 5.000000e+000
         vertex 2.180064e+001 9.300000e+000 5.000000e+000
      endloop
   endfacet
   facet normal 0.000000e+000 -3.491481e-015 1.000000e+000
      outer loop
         vertex 2.348444e+001 1.450000e+001 5.000000e+000
         vertex 2.180064e+001 9.300000e+000 5.000000e+000
         vertex 2.348444e+001 5.437749e-014 5.000000e+000
      endloop
   endfacet
   facet normal 0.000000e+000 -3.491481e-015 1.000000e+000
      outer loop
         vertex 2.348444e+001 5.437749e-014 5.000000e+000
         vertex 2.180064e+001 9.300000e+000 5.000000e+000
         vertex 2.180064e+001 1.500000e+000 5.000000e+000
      endloop
   endfacet
   facet normal 0.000000e+000 -3.491481e-015 1.000000e+000
      outer loop
         vertex 2.348444e+001 5.437749e-014 5.000000e+000
         vertex 2.180064e+001 1.500000e+000 5.000000e+000
         vertex 1.168381e-001 1.673840e-016 5.000000e+000
      endloop
   endfacet
   facet normal 0.000000e+000 -3.491481e-015 1.000000e+000
      outer loop
         vertex 1.168381e-001 1.673840e-016 5.000000e+000
         vertex 2.180064e+001 1.500000e+000 5.000000e+000
         vertex 1.800639e+000 1.500000e+000 5.000000e+000
      endloop
   endfacet
   facet normal 0.000000e+000 -3.491481e-015 1.000000e+000
      outer loop
         vertex 1.168381e-001 1.673840e-016 5.000000e+000
         vertex 1.800639e+000 1.500000e+000 5.000000e+000
         vertex 1.800639e+000 9.300000e+000 5.000000e+000
      endloop
   endfacet
   facet normal 0.000000e+000 3.491481e-015 -1.000000e+000
      outer loop
         vertex 2.180064e+001 9.300000e+000 3.247078e-014
         vertex 2.348444e+001 1.450000e+001 5.062648e-014
         vertex 2.348444e+001 7.183490e-014 0.000000e+000
      endloop
   endfacet
   facet normal 0.000000e+000 3.491481e-015 -1.000000e+000
      outer loop
         vertex 4.300639e+000 1.230000e+001 4.294522e-014
         vertex 4.300639e+000 9.300000e+000 3.247078e-014
         vertex 1.800639e+000 9.300000e+000 3.247078e-014
      endloop
   endfacet
   facet normal 0.000000e+000 3.491481e-015 -1.000000e+000
      outer loop
         vertex 2.048444e+001 1.450000e+001 5.062648e-014
         vertex 2.348444e+001 1.450000e+001 5.062648e-014
         vertex 1.930064e+001 1.230000e+001 4.294522e-014
      endloop
   endfacet
   facet normal 0.000000e+000 3.491481e-015 -1.000000e+000
      outer loop
         vertex 1.930064e+001 1.230000e+001 4.294522e-014
         vertex 2.348444e+001 1.450000e+001 5.062648e-014
         vertex 2.180064e+001 9.300000e+000 3.247078e-014
      endloop
   endfacet
   facet normal 0.000000e+000 3.491481e-015 -1.000000e+000
      outer loop
         vertex 1.930064e+001 1.230000e+001 4.294522e-014
         vertex 2.180064e+001 9.300000e+000 3.247078e-014
         vertex 1.930064e+001 9.300000e+000 3.247078e-014
      endloop
   endfacet
   facet normal 0.000000e+000 3.491481e-015 -1.000000e+000
      outer loop
         vertex 3.116838e+000 1.450000e+001 5.062648e-014
         vertex 4.300639e+000 1.230000e+001 4.294522e-014
         vertex 1.168381e-001 1.450000e+001 5.062648e-014
      endloop
   endfacet
   facet normal 0.000000e+000 3.491481e-015 -1.000000e+000
      outer loop
         vertex 1.168381e-001 1.450000e+001 5.062648e-014
         vertex 4.300639e+000 1.230000e+001 4.294522e-014
         vertex 1.800639e+000 9.300000e+000 3.247078e-014
      endloop
   endfacet
   facet normal 0.000000e+000 3.491481e-015 -1.000000e+000
      outer loop
         vertex 1.168381e-001 1.450000e+001 5.062648e-014
         vertex 1.800639e+000 9.300000e+000 3.247078e-014
         vertex 1.168381e-001 1.762479e-014 -1.892736e-028
      endloop
   endfacet
   facet normal 0.000000e+000 3.491481e-015 -1.000000e+000
      outer loop
         vertex 1.168381e-001 1.762479e-014 -1.892736e-028
         vertex 1.800639e+000 9.300000e+000 3.247078e-014
         vertex 1.800639e+000 1.500000e+000 5.237222e-015
      endloop
   endfacet
   facet normal 0.000000e+000 3.491481e-015 -1.000000e+000
      outer loop
         vertex 1.168381e-001 1.762479e-014 -1.892736e-028
         vertex 1.800639e+000 1.500000e+000 5.237222e-015
         vertex 2.348444e+001 7.183490e-014 0.000000e+000
      endloop
   endfacet
   facet normal 0.000000e+000 3.491481e-015 -1.000000e+000
      outer loop
         vertex 2.348444e+001 7.183490e-014 0.000000e+000
         vertex 1.800639e+000 1.500000e+000 5.237222e-015
         vertex 2.180064e+001 1.500000e+000 5.237222e-015
      endloop
   endfacet
   facet normal 0.000000e+000 3.491481e-015 -1.000000e+000
      outer loop
         vertex 2.348444e+001 7.183490e-014 0.000000e+000
         vertex 2.180064e+001 1.500000e+000 5.237222e-015
         vertex 2.180064e+001 9.300000e+000 3.247078e-014
      endloop
   endfacet
endsolid