solid SpoolRod v3
   facet normal 3.491481e-015 1.000000e+000 6.831543e-015
      outer loop
         vertex 4.599996e+000 1.005000e+001 1.145644e+001
         vertex 5.660000e+001 1.005000e+001 1.145644e+001
         vertex 4.599996e+000 1.005000e+001 6.995623e-014
      endloop
   endfacet
   facet normal 3.491481e-015 1.000000e+000 6.831543e-015
      outer loop
         vertex 4.599996e+000 1.005000e+001 6.995623e-014
         vertex 5.660000e+001 1.005000e+001 1.145644e+001
         vertex 5.660000e+001 1.005000e+001 6.995623e-014
      endloop
   endfacet
   facet normal -6.413747e-031 6.799266e-015 -1.000000e+000
      outer loop
         vertex 5.999990e-001 5.500000e-001 5.363207e-015
         vertex 5.999990e-001 9.549999e+000 6.655660e-014
         vertex 4.599996e+000 5.500000e-001 5.363207e-015
      endloop
   endfacet
   facet normal -6.413747e-031 6.799266e-015 -1.000000e+000
      outer loop
         vertex 4.599996e+000 5.500000e-001 5.363207e-015
         vertex 5.999990e-001 9.549999e+000 6.655660e-014
         vertex 4.599996e+000 9.549999e+000 6.655660e-014
      endloop
   endfacet
   facet normal -6.413747e-031 6.799266e-015 -1.000000e+000
      outer loop
         vertex 4.599996e+000 1.005000e+001 6.995623e-014
         vertex 5.660000e+001 1.005000e+001 6.995623e-014
         vertex 4.599996e+000 9.549999e+000 6.655660e-014
      endloop
   endfacet
   facet normal -6.413747e-031 6.799266e-015 -1.000000e+000
      outer loop
         vertex 4.599996e+000 9.549999e+000 6.655660e-014
         vertex 5.660000e+001 1.005000e+001 6.995623e-014
         vertex 5.660000e+001 9.549999e+000 6.655660e-014
      endloop
   endfacet
   facet normal -6.413747e-031 6.799266e-015 -1.000000e+000
      outer loop
         vertex 6.060000e+001 9.549999e+000 6.655660e-014
         vertex 6.060000e+001 5.500000e-001 5.363207e-015
         vertex 5.660000e+001 9.549999e+000 6.655660e-014
      endloop
   endfacet
   facet normal -6.413747e-031 6.799266e-015 -1.000000e+000
      outer loop
         vertex 5.660000e+001 9.549999e+000 6.655660e-014
         vertex 6.060000e+001 5.500000e-001 5.363207e-015
         vertex 5.660000e+001 5.500000e-001 5.363207e-015
      endloop
   endfacet
   facet normal -6.413747e-031 6.799266e-015 -1.000000e+000
      outer loop
         vertex 5.660000e+001 9.549999e+000 6.655660e-014
         vertex 5.660000e+001 5.500000e-001 5.363207e-015
         vertex 4.599996e+000 9.549999e+000 6.655660e-014
      endloop
   endfacet
   facet normal -6.413747e-031 6.799266e-015 -1.000000e+000
      outer loop
         vertex 4.599996e+000 9.549999e+000 6.655660e-014
         vertex 5.660000e+001 5.500000e-001 5.363207e-015
         vertex 5.660000e+001 4.999992e-002 1.963573e-015
      endloop
   endfacet
   facet normal -6.413747e-031 6.799266e-015 -1.000000e+000
      outer loop
         vertex 4.599996e+000 9.549999e+000 6.655660e-014
         vertex 5.660000e+001 4.999992e-002 1.963573e-015
         vertex 4.599996e+000 5.500000e-001 5.363207e-015
      endloop
   endfacet
   facet normal -6.413747e-031 6.799266e-015 -1.000000e+000
      outer loop
         vertex 4.599996e+000 5.500000e-001 5.363207e-015
         vertex 5.660000e+001 4.999992e-002 1.963573e-015
         vertex 4.599996e+000 4.999992e-002 1.963573e-015
      endloop
   endfacet
   facet normal -3.491481e-015 -1.000000e+000 -6.831543e-015
      outer loop
         vertex 4.599996e+000 4.999992e-002 1.266029e-016
         vertex 5.660000e+001 4.999992e-002 1.266029e-016
         vertex 4.599996e+000 4.999992e-002 1.145644e+001
      endloop
   endfacet
   facet normal -3.491481e-015 -1.000000e+000 -6.831543e-015
      outer loop
         vertex 4.599996e+000 4.999992e-002 1.145644e+001
         vertex 5.660000e+001 4.999992e-002 1.266029e-016
         vertex 5.660000e+001 4.999992e-002 1.145644e+001
      endloop
   endfacet
   facet normal 1.350320e-015 3.867470e-001 9.221858e-001
      outer loop
         vertex 5.660000e+001 9.549999e+000 1.166190e+001
         vertex 5.660000e+001 1.005000e+001 1.145644e+001
         vertex 4.599996e+000 1.005000e+001 1.145644e+001
      endloop
   endfacet
   facet normal 1.303757e-015 3.734109e-001 9.276661e-001
      outer loop
         vertex 4.599996e+000 1.005000e+001 1.145644e+001
         vertex 4.599996e+000 9.549999e+000 1.166190e+001
         vertex 5.660000e+001 9.549999e+000 1.166190e+001
      endloop
   endfacet
   facet normal 1.254246e-015 3.592302e-001 9.332490e-001
      outer loop
         vertex 5.660000e+001 9.549999e+000 1.166190e+001
         vertex 4.599996e+000 9.549999e+000 1.166190e+001
         vertex 6.060000e+001 9.521121e+000 1.167301e+001
      endloop
   endfacet
   facet normal 1.254246e-015 3.592302e-001 9.332490e-001
      outer loop
         vertex 5.660000e+001 9.549999e+000 1.166190e+001
         vertex 6.060000e+001 9.521121e+000 1.167301e+001
         vertex 6.060000e+001 9.549999e+000 1.166190e+001
      endloop
   endfacet
   facet normal -1.254246e-015 -3.592302e-001 9.332490e-001
      outer loop
         vertex 5.660000e+001 5.500000e-001 1.166190e+001
         vertex 6.060000e+001 5.500000e-001 1.166190e+001
         vertex 6.060000e+001 5.788785e-001 1.167301e+001
      endloop
   endfacet
   facet normal -1.350320e-015 -3.867470e-001 9.221858e-001
      outer loop
         vertex 4.599996e+000 5.500000e-001 1.166190e+001
         vertex 4.599996e+000 4.999992e-002 1.145644e+001
         vertex 5.660000e+001 4.999992e-002 1.145644e+001
      endloop
   endfacet
   facet normal -1.303757e-015 -3.734109e-001 9.276661e-001
      outer loop
         vertex 5.660000e+001 4.999992e-002 1.145644e+001
         vertex 5.660000e+001 5.500000e-001 1.166190e+001
         vertex 4.599996e+000 5.500000e-001 1.166190e+001
      endloop
   endfacet
   facet normal -1.254246e-015 -3.592302e-001 9.332490e-001
      outer loop
         vertex 4.599996e+000 5.500000e-001 1.166190e+001
         vertex 5.660000e+001 5.500000e-001 1.166190e+001
         vertex 5.999990e-001 5.788785e-001 1.167301e+001
      endloop
   endfacet
   facet normal -1.254246e-015 -3.592302e-001 9.332490e-001
      outer loop
         vertex 4.599996e+000 5.500000e-001 1.166190e+001
         vertex 5.999990e-001 5.788785e-001 1.167301e+001
         vertex 5.999990e-001 5.500000e-001 1.166190e+001
      endloop
   endfacet
   facet normal -1.251557e-015 -3.584601e-001 9.335451e-001
      outer loop
         vertex 5.660000e+001 5.500000e-001 1.166190e+001
         vertex 6.060000e+001 5.788785e-001 1.167301e+001
         vertex 5.999990e-001 5.788785e-001 1.167301e+001
      endloop
   endfacet
   facet normal -1.199033e-015 -3.434168e-001 9.391831e-001
      outer loop
         vertex 5.999990e-001 5.788785e-001 1.167301e+001
         vertex 6.060000e+001 5.788785e-001 1.167301e+001
         vertex 6.060000e+001 1.117103e+000 1.186517e+001
      endloop
   endfacet
   facet normal -1.148910e-015 -3.290608e-001 9.443087e-001
      outer loop
         vertex 5.999990e-001 5.788785e-001 1.167301e+001
         vertex 6.060000e+001 1.117103e+000 1.186517e+001
         vertex 5.999990e-001 1.117103e+000 1.186517e+001
      endloop
   endfacet
   facet normal -1.047897e-015 -3.001295e-001 9.538984e-001
      outer loop
         vertex 5.999990e-001 1.117103e+000 1.186517e+001
         vertex 6.060000e+001 1.117103e+000 1.186517e+001
         vertex 6.060000e+001 1.663549e+000 1.203254e+001
      endloop
   endfacet
   facet normal -9.970075e-016 -2.855543e-001 9.583625e-001
      outer loop
         vertex 5.999990e-001 1.117103e+000 1.186517e+001
         vertex 6.060000e+001 1.663549e+000 1.203254e+001
         vertex 5.999990e-001 1.663549e+000 1.203254e+001
      endloop
   endfacet
   facet normal -8.945696e-016 -2.562149e-001 9.666198e-001
      outer loop
         vertex 5.999990e-001 1.663549e+000 1.203254e+001
         vertex 6.060000e+001 1.663549e+000 1.203254e+001
         vertex 6.060000e+001 2.217073e+000 1.217475e+001
      endloop
   endfacet
   facet normal -8.430211e-016 -2.414508e-001 9.704130e-001
      outer loop
         vertex 5.999990e-001 1.663549e+000 1.203254e+001
         vertex 6.060000e+001 2.217073e+000 1.217475e+001
         vertex 5.999990e-001 2.217073e+000 1.217475e+001
      endloop
   endfacet
   facet normal -7.393726e-016 -2.117647e-001 9.773207e-001
      outer loop
         vertex 5.999990e-001 2.217073e+000 1.217475e+001
         vertex 6.060000e+001 2.217073e+000 1.217475e+001
         vertex 6.060000e+001 2.776520e+000 1.229151e+001
      endloop
   endfacet
   facet normal -6.872726e-016 -1.968427e-001 9.804351e-001
      outer loop
         vertex 5.999990e-001 2.217073e+000 1.217475e+001
         vertex 6.060000e+001 2.776520e+000 1.229151e+001
         vertex 5.999990e-001 2.776520e+000 1.229151e+001
      endloop
   endfacet
   facet normal -5.826300e-016 -1.668719e-001 9.859786e-001
      outer loop
         vertex 5.999990e-001 2.776520e+000 1.229151e+001
         vertex 6.060000e+001 2.776520e+000 1.229151e+001
         vertex 6.060000e+001 3.340718e+000 1.238258e+001
      endloop
   endfacet
   facet normal -5.300875e-016 -1.518231e-001 9.884077e-001
      outer loop
         vertex 5.999990e-001 2.776520e+000 1.229151e+001
         vertex 6.060000e+001 3.340718e+000 1.238258e+001
         vertex 5.999990e-001 3.340719e+000 1.238258e+001
      endloop
   endfacet
   facet normal -4.246695e-016 -1.216302e-001 9.925755e-001
      outer loop
         vertex 5.999990e-001 3.340719e+000 1.238258e+001
         vertex 6.060000e+001 3.340718e+000 1.238258e+001
         vertex 6.060000e+001 3.908490e+000 1.244777e+001
      endloop
   endfacet
   facet normal -3.717942e-016 -1.064861e-001 9.943142e-001
      outer loop
         vertex 5.999990e-001 3.340719e+000 1.238258e+001
         vertex 6.060000e+001 3.908490e+000 1.244777e+001
         vertex 5.999990e-001 3.908490e+000 1.244777e+001
      endloop
   endfacet
   facet normal -2.658213e-016 -7.613426e-002 9.970976e-001
      outer loop
         vertex 5.999990e-001 3.908490e+000 1.244777e+001
         vertex 6.060000e+001 3.908490e+000 1.244777e+001
         vertex 6.060000e+001 4.478648e+000 1.248694e+001
      endloop
   endfacet
   facet normal -2.127238e-016 -6.092652e-002 9.981422e-001
      outer loop
         vertex 5.999990e-001 3.908490e+000 1.244777e+001
         vertex 6.060000e+001 4.478648e+000 1.248694e+001
         vertex 5.999990e-001 4.478648e+000 1.248694e+001
      endloop
   endfacet
   facet normal -1.064175e-016 -3.047919e-002 9.995354e-001
      outer loop
         vertex 5.999990e-001 4.478648e+000 1.248694e+001
         vertex 6.060000e+001 4.478648e+000 1.248694e+001
         vertex 6.060000e+001 5.050000e+000 1.250000e+001
      endloop
   endfacet
   facet normal -5.320876e-017 -1.523959e-002 9.998839e-001
      outer loop
         vertex 5.999990e-001 4.478648e+000 1.248694e+001
         vertex 6.060000e+001 5.050000e+000 1.250000e+001
         vertex 5.999990e-001 5.050000e+000 1.250000e+001
      endloop
   endfacet
   facet normal 5.320876e-017 1.523959e-002 9.998839e-001
      outer loop
         vertex 5.999990e-001 5.050000e+000 1.250000e+001
         vertex 6.060000e+001 5.050000e+000 1.250000e+001
         vertex 6.060000e+001 5.621352e+000 1.248694e+001
      endloop
   endfacet
   facet normal 1.064175e-016 3.047919e-002 9.995354e-001
      outer loop
         vertex 5.999990e-001 5.050000e+000 1.250000e+001
         vertex 6.060000e+001 5.621352e+000 1.248694e+001
         vertex 5.999990e-001 5.621352e+000 1.248694e+001
      endloop
   endfacet
   facet normal 2.127238e-016 6.092652e-002 9.981422e-001
      outer loop
         vertex 5.999990e-001 5.621352e+000 1.248694e+001
         vertex 6.060000e+001 5.621352e+000 1.248694e+001
         vertex 6.060000e+001 6.191509e+000 1.244777e+001
      endloop
   endfacet
   facet normal 2.658213e-016 7.613426e-002 9.970976e-001
      outer loop
         vertex 5.999990e-001 5.621352e+000 1.248694e+001
         vertex 6.060000e+001 6.191509e+000 1.244777e+001
         vertex 5.999990e-001 6.191510e+000 1.244777e+001
      endloop
   endfacet
   facet normal 3.717942e-016 1.064861e-001 9.943142e-001
      outer loop
         vertex 5.999990e-001 6.191510e+000 1.244777e+001
         vertex 6.060000e+001 6.191509e+000 1.244777e+001
         vertex 6.060000e+001 6.759281e+000 1.238258e+001
      endloop
   endfacet
   facet normal 4.246695e-016 1.216302e-001 9.925755e-001
      outer loop
         vertex 5.999990e-001 6.191510e+000 1.244777e+001
         vertex 6.060000e+001 6.759281e+000 1.238258e+001
         vertex 5.999990e-001 6.759281e+000 1.238258e+001
      endloop
   endfacet
   facet normal 5.300875e-016 1.518231e-001 9.884077e-001
      outer loop
         vertex 5.999990e-001 6.759281e+000 1.238258e+001
         vertex 6.060000e+001 6.759281e+000 1.238258e+001
         vertex 6.060000e+001 7.323480e+000 1.229151e+001
      endloop
   endfacet
   facet normal 5.826300e-016 1.668719e-001 9.859786e-001
      outer loop
         vertex 5.999990e-001 6.759281e+000 1.238258e+001
         vertex 6.060000e+001 7.323480e+000 1.229151e+001
         vertex 5.999990e-001 7.323480e+000 1.229151e+001
      endloop
   endfacet
   facet normal 6.872726e-016 1.968427e-001 9.804351e-001
      outer loop
         vertex 5.999990e-001 7.323480e+000 1.229151e+001
         vertex 6.060000e+001 7.323480e+000 1.229151e+001
         vertex 6.060000e+001 7.882926e+000 1.217475e+001
      endloop
   endfacet
   facet normal 7.393726e-016 2.117647e-001 9.773207e-001
      outer loop
         vertex 5.999990e-001 7.323480e+000 1.229151e+001
         vertex 6.060000e+001 7.882926e+000 1.217475e+001
         vertex 5.999990e-001 7.882926e+000 1.217475e+001
      endloop
   endfacet
   facet normal 8.430211e-016 2.414508e-001 9.704130e-001
      outer loop
         vertex 5.999990e-001 7.882926e+000 1.217475e+001
         vertex 6.060000e+001 7.882926e+000 1.217475e+001
         vertex 6.060000e+001 8.436451e+000 1.203254e+001
      endloop
   endfacet
   facet normal 8.945696e-016 2.562149e-001 9.666198e-001
      outer loop
         vertex 5.999990e-001 7.882926e+000 1.217475e+001
         vertex 6.060000e+001 8.436451e+000 1.203254e+001
         vertex 5.999990e-001 8.436451e+000 1.203254e+001
      endloop
   endfacet
   facet normal 9.970075e-016 2.855543e-001 9.583625e-001
      outer loop
         vertex 5.999990e-001 8.436451e+000 1.203254e+001
         vertex 6.060000e+001 8.436451e+000 1.203254e+001
         vertex 6.060000e+001 8.982896e+000 1.186517e+001
      endloop
   endfacet
   facet normal 1.047897e-015 3.001295e-001 9.538984e-001
      outer loop
         vertex 5.999990e-001 8.436451e+000 1.203254e+001
         vertex 6.060000e+001 8.982896e+000 1.186517e+001
         vertex 5.999990e-001 8.982897e+000 1.186517e+001
      endloop
   endfacet
   facet normal 1.148910e-015 3.290608e-001 9.443088e-001
      outer loop
         vertex 5.999990e-001 8.982897e+000 1.186517e+001
         vertex 6.060000e+001 8.982896e+000 1.186517e+001
         vertex 6.060000e+001 9.521121e+000 1.167301e+001
      endloop
   endfacet
   facet normal 1.199033e-015 3.434168e-001 9.391831e-001
      outer loop
         vertex 5.999990e-001 8.982897e+000 1.186517e+001
         vertex 6.060000e+001 9.521121e+000 1.167301e+001
         vertex 5.999990e-001 9.521121e+000 1.167301e+001
      endloop
   endfacet
   facet normal 1.251557e-015 3.584600e-001 9.335451e-001
      outer loop
         vertex 5.999990e-001 9.521121e+000 1.167301e+001
         vertex 6.060000e+001 9.521121e+000 1.167301e+001
         vertex 4.599996e+000 9.549999e+000 1.166190e+001
      endloop
   endfacet
   facet normal 1.254246e-015 3.592302e-001 9.332490e-001
      outer loop
         vertex 5.999990e-001 9.521121e+000 1.167301e+001
         vertex 4.599996e+000 9.549999e+000 1.166190e+001
         vertex 5.999990e-001 9.549999e+000 1.166190e+001
      endloop
   endfacet
   facet normal -1.000000e+000 3.491481e-015 2.438088e-029
      outer loop
         vertex 5.999990e-001 9.521121e+000 1.167301e+001
         vertex 5.999990e-001 9.549999e+000 1.166190e+001
         vertex 5.999990e-001 9.549999e+000 6.655660e-014
      endloop
   endfacet
   facet normal -1.000000e+000 3.491481e-015 2.438088e-029
      outer loop
         vertex 5.999990e-001 5.500000e-001 3.618085e-015
         vertex 5.999990e-001 5.500000e-001 1.166190e+001
         vertex 5.999990e-001 9.549999e+000 6.655660e-014
      endloop
   endfacet
   facet normal -1.000000e+000 3.491481e-015 2.438088e-029
      outer loop
         vertex 5.999990e-001 9.549999e+000 6.655660e-014
         vertex 5.999990e-001 5.500000e-001 1.166190e+001
         vertex 5.999990e-001 5.788785e-001 1.167301e+001
      endloop
   endfacet
   facet normal -1.000000e+000 3.491481e-015 2.438088e-029
      outer loop
         vertex 5.999990e-001 9.549999e+000 6.655660e-014
         vertex 5.999990e-001 5.621352e+000 1.248694e+001
         vertex 5.999990e-001 6.191510e+000 1.244777e+001
      endloop
   endfacet
   facet normal -1.000000e+000 3.491481e-015 2.438088e-029
      outer loop
         vertex 5.999990e-001 6.191510e+000 1.244777e+001
         vertex 5.999990e-001 6.759281e+000 1.238258e+001
         vertex 5.999990e-001 9.549999e+000 6.655660e-014
      endloop
   endfacet
   facet normal -1.000000e+000 3.491481e-015 2.438088e-029
      outer loop
         vertex 5.999990e-001 9.549999e+000 6.655660e-014
         vertex 5.999990e-001 6.759281e+000 1.238258e+001
         vertex 5.999990e-001 7.323480e+000 1.229151e+001
      endloop
   endfacet
   facet normal -1.000000e+000 3.491481e-015 2.438088e-029
      outer loop
         vertex 5.999990e-001 9.549999e+000 6.655660e-014
         vertex 5.999990e-001 7.323480e+000 1.229151e+001
         vertex 5.999990e-001 7.882926e+000 1.217475e+001
      endloop
   endfacet
   facet normal -1.000000e+000 3.491481e-015 2.438088e-029
      outer loop
         vertex 5.999990e-001 7.882926e+000 1.217475e+001
         vertex 5.999990e-001 8.436451e+000 1.203254e+001
         vertex 5.999990e-001 9.549999e+000 6.655660e-014
      endloop
   endfacet
   facet normal -1.000000e+000 3.491481e-015 2.438088e-029
      outer loop
         vertex 5.999990e-001 9.549999e+000 6.655660e-014
         vertex 5.999990e-001 8.436451e+000 1.203254e+001
         vertex 5.999990e-001 8.982897e+000 1.186517e+001
      endloop
   endfacet
   facet normal -1.000000e+000 3.491481e-015 2.438088e-029
      outer loop
         vertex 5.999990e-001 9.549999e+000 6.655660e-014
         vertex 5.999990e-001 8.982897e+000 1.186517e+001
         vertex 5.999990e-001 9.521121e+000 1.167301e+001
      endloop
   endfacet
   facet normal -1.000000e+000 3.491481e-015 2.438088e-029
      outer loop
         vertex 5.999990e-001 5.788785e-001 1.167301e+001
         vertex 5.999990e-001 1.117103e+000 1.186517e+001
         vertex 5.999990e-001 9.549999e+000 6.655660e-014
      endloop
   endfacet
   facet normal -1.000000e+000 3.491481e-015 2.438088e-029
      outer loop
         vertex 5.999990e-001 9.549999e+000 6.655660e-014
         vertex 5.999990e-001 1.117103e+000 1.186517e+001
         vertex 5.999990e-001 1.663549e+000 1.203254e+001
      endloop
   endfacet
   facet normal -1.000000e+000 3.491481e-015 2.438088e-029
      outer loop
         vertex 5.999990e-001 9.549999e+000 6.655660e-014
         vertex 5.999990e-001 1.663549e+000 1.203254e+001
         vertex 5.999990e-001 2.217073e+000 1.217475e+001
      endloop
   endfacet
   facet normal -1.000000e+000 3.491481e-015 2.438088e-029
      outer loop
         vertex 5.999990e-001 2.217073e+000 1.217475e+001
         vertex 5.999990e-001 2.776520e+000 1.229151e+001
         vertex 5.999990e-001 9.549999e+000 6.655660e-014
      endloop
   endfacet
   facet normal -1.000000e+000 3.491481e-015 2.438088e-029
      outer loop
         vertex 5.999990e-001 9.549999e+000 6.655660e-014
         vertex 5.999990e-001 2.776520e+000 1.229151e+001
         vertex 5.999990e-001 3.340719e+000 1.238258e+001
      endloop
   endfacet
   facet normal -1.000000e+000 3.491481e-015 2.438088e-029
      outer loop
         vertex 5.999990e-001 9.549999e+000 6.655660e-014
         vertex 5.999990e-001 3.340719e+000 1.238258e+001
         vertex 5.999990e-001 3.908490e+000 1.244777e+001
      endloop
   endfacet
   facet normal -1.000000e+000 3.491481e-015 2.438088e-029
      outer loop
         vertex 5.999990e-001 3.908490e+000 1.244777e+001
         vertex 5.999990e-001 4.478648e+000 1.248694e+001
         vertex 5.999990e-001 9.549999e+000 6.655660e-014
      endloop
   endfacet
   facet normal -1.000000e+000 3.491481e-015 2.438088e-029
      outer loop
         vertex 5.999990e-001 9.549999e+000 6.655660e-014
         vertex 5.999990e-001 4.478648e+000 1.248694e+001
         vertex 5.999990e-001 5.050000e+000 1.250000e+001
      endloop
   endfacet
   facet normal -1.000000e+000 3.491481e-015 2.438088e-029
      outer loop
         vertex 5.999990e-001 9.549999e+000 6.655660e-014
         vertex 5.999990e-001 5.050000e+000 1.250000e+001
         vertex 5.999990e-001 5.621352e+000 1.248694e+001
      endloop
   endfacet
   facet normal 1.000000e+000 -3.491481e-015 -2.438088e-029
      outer loop
         vertex 6.060000e+001 5.500000e-001 1.166190e+001
         vertex 6.060000e+001 5.500000e-001 5.363207e-015
         vertex 6.060000e+001 5.788785e-001 1.167301e+001
      endloop
   endfacet
   facet normal 1.000000e+000 -3.491481e-015 -2.438088e-029
      outer loop
         vertex 6.060000e+001 5.788785e-001 1.167301e+001
         vertex 6.060000e+001 5.500000e-001 5.363207e-015
         vertex 6.060000e+001 9.549999e+000 6.646474e-014
      endloop
   endfacet
   facet normal 1.000000e+000 -3.491481e-015 -2.438088e-029
      outer loop
         vertex 6.060000e+001 5.788785e-001 1.167301e+001
         vertex 6.060000e+001 9.549999e+000 6.646474e-014
         vertex 6.060000e+001 1.117103e+000 1.186517e+001
      endloop
   endfacet
   facet normal 1.000000e+000 -3.491481e-015 -2.438088e-029
      outer loop
         vertex 6.060000e+001 7.323480e+000 1.229151e+001
         vertex 6.060000e+001 6.759281e+000 1.238258e+001
         vertex 6.060000e+001 9.549999e+000 6.646474e-014
      endloop
   endfacet
   facet normal 1.000000e+000 -3.491481e-015 -2.438088e-029
      outer loop
         vertex 6.060000e+001 9.549999e+000 1.166190e+001
         vertex 6.060000e+001 9.521121e+000 1.167301e+001
         vertex 6.060000e+001 9.549999e+000 6.646474e-014
      endloop
   endfacet
   facet normal 1.000000e+000 -3.491481e-015 -2.438088e-029
      outer loop
         vertex 6.060000e+001 9.549999e+000 6.646474e-014
         vertex 6.060000e+001 9.521121e+000 1.167301e+001
         vertex 6.060000e+001 8.982896e+000 1.186517e+001
      endloop
   endfacet
   facet normal 1.000000e+000 -3.491481e-015 -2.438088e-029
      outer loop
         vertex 6.060000e+001 8.982896e+000 1.186517e+001
         vertex 6.060000e+001 8.436451e+000 1.203254e+001
         vertex 6.060000e+001 9.549999e+000 6.646474e-014
      endloop
   endfacet
   facet normal 1.000000e+000 -3.491481e-015 -2.438088e-029
      outer loop
         vertex 6.060000e+001 9.549999e+000 6.646474e-014
         vertex 6.060000e+001 8.436451e+000 1.203254e+001
         vertex 6.060000e+001 7.882926e+000 1.217475e+001
      endloop
   endfacet
   facet normal 1.000000e+000 -3.491481e-015 -2.438088e-029
      outer loop
         vertex 6.060000e+001 9.549999e+000 6.646474e-014
         vertex 6.060000e+001 7.882926e+000 1.217475e+001
         vertex 6.060000e+001 7.323480e+000 1.229151e+001
      endloop
   endfacet
   facet normal 1.000000e+000 -3.491481e-015 -2.438088e-029
      outer loop
         vertex 6.060000e+001 6.759281e+000 1.238258e+001
         vertex 6.060000e+001 6.191509e+000 1.244777e+001
         vertex 6.060000e+001 9.549999e+000 6.646474e-014
      endloop
   endfacet
   facet normal 1.000000e+000 -3.491481e-015 -2.438088e-029
      outer loop
         vertex 6.060000e+001 9.549999e+000 6.646474e-014
         vertex 6.060000e+001 6.191509e+000 1.244777e+001
         vertex 6.060000e+001 5.621352e+000 1.248694e+001
      endloop
   endfacet
   facet normal 1.000000e+000 -3.491481e-015 -2.438088e-029
      outer loop
         vertex 6.060000e+001 9.549999e+000 6.646474e-014
         vertex 6.060000e+001 5.621352e+000 1.248694e+001
         vertex 6.060000e+001 5.050000e+000 1.250000e+001
      endloop
   endfacet
   facet normal 1.000000e+000 -3.491481e-015 -2.438088e-029
      outer loop
         vertex 6.060000e+001 9.549999e+000 6.646474e-014
         vertex 6.060000e+001 3.340718e+000 1.238258e+001
         vertex 6.060000e+001 2.776520e+000 1.229151e+001
      endloop
   endfacet
   facet normal 1.000000e+000 -3.491481e-015 -2.438088e-029
      outer loop
         vertex 6.060000e+001 2.776520e+000 1.229151e+001
         vertex 6.060000e+001 2.217073e+000 1.217475e+001
         vertex 6.060000e+001 9.549999e+000 6.646474e-014
      endloop
   endfacet
   facet normal 1.000000e+000 -3.491481e-015 -2.438088e-029
      outer loop
         vertex 6.060000e+001 9.549999e+000 6.646474e-014
         vertex 6.060000e+001 2.217073e+000 1.217475e+001
         vertex 6.060000e+001 1.663549e+000 1.203254e+001
      endloop
   endfacet
   facet normal 1.000000e+000 -3.491481e-015 -2.438088e-029
      outer loop
         vertex 6.060000e+001 9.549999e+000 6.646474e-014
         vertex 6.060000e+001 1.663549e+000 1.203254e+001
         vertex 6.060000e+001 1.117103e+000 1.186517e+001
      endloop
   endfacet
   facet normal 1.000000e+000 -3.491481e-015 -2.438088e-029
      outer loop
         vertex 6.060000e+001 5.050000e+000 1.250000e+001
         vertex 6.060000e+001 4.478648e+000 1.248694e+001
         vertex 6.060000e+001 9.549999e+000 6.646474e-014
      endloop
   endfacet
   facet normal 1.000000e+000 -3.491481e-015 -2.438088e-029
      outer loop
         vertex 6.060000e+001 9.549999e+000 6.646474e-014
         vertex 6.060000e+001 4.478648e+000 1.248694e+001
         vertex 6.060000e+001 3.908490e+000 1.244777e+001
      endloop
   endfacet
   facet normal 1.000000e+000 -3.491481e-015 -2.438088e-029
      outer loop
         vertex 6.060000e+001 9.549999e+000 6.646474e-014
         vertex 6.060000e+001 3.908490e+000 1.244777e+001
         vertex 6.060000e+001 3.340718e+000 1.238258e+001
      endloop
   endfacet
   facet normal 1.000000e+000 -3.491481e-015 -2.438088e-029
      outer loop
         vertex 5.660000e+001 1.005000e+001 6.995623e-014
         vertex 5.660000e+001 1.005000e+001 1.145644e+001
         vertex 5.660000e+001 9.549999e+000 6.646474e-014
      endloop
   endfacet
   facet normal 1.000000e+000 -3.491481e-015 -2.438088e-029
      outer loop
         vertex 5.660000e+001 9.549999e+000 6.646474e-014
         vertex 5.660000e+001 1.005000e+001 1.145644e+001
         vertex 5.660000e+001 9.549999e+000 1.166190e+001
      endloop
   endfacet
   facet normal 3.491481e-015 1.000000e+000 6.982962e-015
      outer loop
         vertex 5.660000e+001 9.549999e+000 6.646474e-014
         vertex 5.660000e+001 9.549999e+000 1.166190e+001
         vertex 6.060000e+001 9.549999e+000 6.646474e-014
      endloop
   endfacet
   facet normal 3.491481e-015 1.000000e+000 6.982962e-015
      outer loop
         vertex 6.060000e+001 9.549999e+000 6.646474e-014
         vertex 5.660000e+001 9.549999e+000 1.166190e+001
         vertex 6.060000e+001 9.549999e+000 1.166190e+001
      endloop
   endfacet
   facet normal 1.000000e+000 -3.491481e-015 -2.438088e-029
      outer loop
         vertex 5.660000e+001 5.500000e-001 3.618085e-015
         vertex 5.660000e+001 5.500000e-001 1.166190e+001
         vertex 5.660000e+001 4.999992e-002 1.266029e-016
      endloop
   endfacet
   facet normal 1.000000e+000 -3.491481e-015 -2.438088e-029
      outer loop
         vertex 5.660000e+001 4.999992e-002 1.266029e-016
         vertex 5.660000e+001 5.500000e-001 1.166190e+001
         vertex 5.660000e+001 4.999992e-002 1.145644e+001
      endloop
   endfacet
   facet normal -3.491481e-015 -1.000000e+000 -6.982962e-015
      outer loop
         vertex 6.060000e+001 5.500000e-001 7.087532e-015
         vertex 6.060000e+001 5.500000e-001 1.166190e+001
         vertex 5.660000e+001 5.500000e-001 3.618085e-015
      endloop
   endfacet
   facet normal -3.491481e-015 -1.000000e+000 -6.982962e-015
      outer loop
         vertex 5.660000e+001 5.500000e-001 3.618085e-015
         vertex 6.060000e+001 5.500000e-001 1.166190e+001
         vertex 5.660000e+001 5.500000e-001 1.166190e+001
      endloop
   endfacet
   facet normal -1.000000e+000 3.491481e-015 2.438088e-029
      outer loop
         vertex 4.599996e+000 4.999992e-002 1.266029e-016
         vertex 4.599996e+000 4.999992e-002 1.145644e+001
         vertex 4.599996e+000 5.500000e-001 3.618085e-015
      endloop
   endfacet
   facet normal -1.000000e+000 3.491481e-015 2.438088e-029
      outer loop
         vertex 4.599996e+000 5.500000e-001 3.618085e-015
         vertex 4.599996e+000 4.999992e-002 1.145644e+001
         vertex 4.599996e+000 5.500000e-001 1.166190e+001
      endloop
   endfacet
   facet normal -3.491481e-015 -1.000000e+000 -6.982962e-015
      outer loop
         vertex 4.599996e+000 5.500000e-001 3.618085e-015
         vertex 4.599996e+000 5.500000e-001 1.166190e+001
         vertex 5.999990e-001 5.500000e-001 3.618085e-015
      endloop
   endfacet
   facet normal -3.491481e-015 -1.000000e+000 -6.982962e-015
      outer loop
         vertex 5.999990e-001 5.500000e-001 3.618085e-015
         vertex 4.599996e+000 5.500000e-001 1.166190e+001
         vertex 5.999990e-001 5.500000e-001 1.166190e+001
      endloop
   endfacet
   facet normal -1.000000e+000 3.491481e-015 2.438088e-029
      outer loop
         vertex 4.599996e+000 9.549999e+000 6.646474e-014
         vertex 4.599996e+000 9.549999e+000 1.166190e+001
         vertex 4.599996e+000 1.005000e+001 6.995623e-014
      endloop
   endfacet
   facet normal -1.000000e+000 3.491481e-015 2.438088e-029
      outer loop
         vertex 4.599996e+000 1.005000e+001 6.995623e-014
         vertex 4.599996e+000 9.549999e+000 1.166190e+001
         vertex 4.599996e+000 1.005000e+001 1.145644e+001
      endloop
   endfacet
   facet normal 3.491481e-015 1.000000e+000 6.982962e-015
      outer loop
         vertex 5.999990e-001 9.549999e+000 6.646474e-014
         vertex 5.999990e-001 9.549999e+000 1.166190e+001
         vertex 4.599996e+000 9.549999e+000 6.646474e-014
      endloop
   endfacet
   facet normal 3.491481e-015 1.000000e+000 6.982962e-015
      outer loop
         vertex 4.599996e+000 9.549999e+000 6.646474e-014
         vertex 5.999990e-001 9.549999e+000 1.166190e+001
         vertex 4.599996e+000 9.549999e+000 1.166190e+001
      endloop
   endfacet
endsolid