solid SpoolRod
   facet normal 1.261583e-002 -9.999204e-001 -3.491203e-015
      outer loop
         vertex 4.977247e+000 5.090237e-002 6.000000e+001
         vertex 4.797500e+000 4.750025e-002 6.000000e+001
         vertex 4.797500e+000 4.750025e-002 9.361719e-016
      endloop
   endfacet
   facet normal -1.261583e-002 -9.999204e-001 -3.491203e-015
      outer loop
         vertex 4.797500e+000 4.750025e-002 9.361719e-016
         vertex 4.797500e+000 4.750025e-002 6.000000e+001
         vertex 4.617753e+000 5.090237e-002 9.480504e-016
      endloop
   endfacet
   facet normal 2.523167e-002 -9.996817e-001 -3.490370e-015
      outer loop
         vertex 4.797500e+000 4.750025e-002 9.361719e-016
         vertex 4.977247e+000 5.090237e-002 9.480504e-016
         vertex 4.977247e+000 5.090237e-002 6.000000e+001
      endloop
   endfacet
   facet normal 6.303700e-002 -9.980112e-001 -3.484537e-015
      outer loop
         vertex 4.977247e+000 5.090237e-002 6.000000e+001
         vertex 4.977247e+000 5.090237e-002 9.480504e-016
         vertex 5.335711e+000 7.809047e-002 1.042977e-015
      endloop
   endfacet
   facet normal 8.820844e-002 -9.961020e-001 -3.477872e-015
      outer loop
         vertex 4.977247e+000 5.090237e-002 6.000000e+001
         vertex 5.335711e+000 7.809047e-002 1.042977e-015
         vertex 5.335711e+000 7.809047e-002 6.000000e+001
      endloop
   endfacet
   facet normal 1.383348e-001 -9.903855e-001 -3.457912e-015
      outer loop
         vertex 5.335711e+000 7.809047e-002 6.000000e+001
         vertex 5.335711e+000 7.809047e-002 1.042977e-015
         vertex 5.691093e+000 1.323107e-001 1.232286e-015
      endloop
   endfacet
   facet normal 1.632898e-001 -9.865782e-001 -3.444619e-015
      outer loop
         vertex 5.335711e+000 7.809047e-002 6.000000e+001
         vertex 5.691093e+000 1.323107e-001 1.232286e-015
         vertex 5.691093e+000 1.323107e-001 6.000000e+001
      endloop
   endfacet
   facet normal 2.128402e-001 -9.770870e-001 -3.411481e-015
      outer loop
         vertex 5.691093e+000 1.323107e-001 6.000000e+001
         vertex 5.691093e+000 1.323107e-001 1.232286e-015
         vertex 6.041357e+000 2.132528e-001 1.514894e-015
      endloop
   endfacet
   facet normal 2.374358e-001 -9.714032e-001 -3.391636e-015
      outer loop
         vertex 5.691093e+000 1.323107e-001 6.000000e+001
         vertex 6.041357e+000 2.132528e-001 1.514894e-015
         vertex 6.041357e+000 2.132528e-001 6.000000e+001
      endloop
   endfacet
   facet normal 2.861265e-001 -9.581919e-001 -3.345509e-015
      outer loop
         vertex 6.041357e+000 2.132528e-001 6.000000e+001
         vertex 6.041357e+000 2.132528e-001 1.514894e-015
         vertex 6.384495e+000 3.204532e-001 1.889182e-015
      endloop
   endfacet
   facet normal 3.102218e-001 -9.506642e-001 -3.319226e-015
      outer loop
         vertex 6.041357e+000 2.132528e-001 6.000000e+001
         vertex 6.384495e+000 3.204532e-001 1.889182e-015
         vertex 6.384495e+000 3.204532e-001 6.000000e+001
      endloop
   endfacet
   facet normal 3.577740e-001 -9.338082e-001 -3.260374e-015
      outer loop
         vertex 6.384495e+000 3.204532e-001 6.000000e+001
         vertex 6.384495e+000 3.204532e-001 1.889182e-015
         vertex 6.718544e+000 4.532980e-001 2.353007e-015
      endloop
   endfacet
   facet normal 3.812309e-001 -9.244798e-001 -3.227804e-015
      outer loop
         vertex 6.384495e+000 3.204532e-001 6.000000e+001
         vertex 6.718544e+000 4.532980e-001 2.353007e-015
         vertex 6.718544e+000 4.532980e-001 6.000000e+001
      endloop
   endfacet
   facet normal 4.273720e-001 -9.040759e-001 -3.156564e-015
      outer loop
         vertex 6.718544e+000 4.532980e-001 6.000000e+001
         vertex 6.718544e+000 4.532980e-001 2.353007e-015
         vertex 7.041588e+000 6.110254e-001 2.903709e-015
      endloop
   endfacet
   facet normal 4.500562e-001 -8.930002e-001 -3.117894e-015
      outer loop
         vertex 6.718544e+000 4.532980e-001 6.000000e+001
         vertex 7.041588e+000 6.110254e-001 2.903709e-015
         vertex 7.041588e+000 6.110254e-001 6.000000e+001
      endloop
   endfacet
   facet normal 4.945222e-001 -8.691650e-001 -3.034673e-015
      outer loop
         vertex 7.041588e+000 6.110254e-001 6.000000e+001
         vertex 7.041588e+000 6.110254e-001 2.903709e-015
         vertex 7.351779e+000 7.927330e-001 3.538138e-015
      endloop
   endfacet
   facet normal 5.163038e-001 -8.564055e-001 -2.990124e-015
      outer loop
         vertex 7.041588e+000 6.110254e-001 6.000000e+001
         vertex 7.351779e+000 7.927330e-001 3.538138e-015
         vertex 7.351779e+000 7.927330e-001 6.000000e+001
      endloop
   endfacet
   facet normal 5.588397e-001 -8.292757e-001 -2.895400e-015
      outer loop
         vertex 7.351779e+000 7.927330e-001 6.000000e+001
         vertex 7.351779e+000 7.927330e-001 3.538138e-015
         vertex 7.647339e+000 9.973794e-001 4.252658e-015
      endloop
   endfacet
   facet normal 5.795940e-001 -8.149053e-001 -2.845227e-015
      outer loop
         vertex 7.351779e+000 7.927330e-001 6.000000e+001
         vertex 7.647339e+000 9.973794e-001 4.252658e-015
         vertex 7.647339e+000 9.973794e-001 6.000000e+001
      endloop
   endfacet
   facet normal 6.199564e-001 -7.846363e-001 -2.739543e-015
      outer loop
         vertex 7.647339e+000 9.973794e-001 6.000000e+001
         vertex 7.647339e+000 9.973794e-001 4.252658e-015
         vertex 7.926576e+000 1.223793e+000 5.043174e-015
      endloop
   endfacet
   facet normal 6.395644e-001 -7.687375e-001 -2.684033e-015
      outer loop
         vertex 7.647339e+000 9.973794e-001 6.000000e+001
         vertex 7.926576e+000 1.223793e+000 5.043174e-015
         vertex 7.926576e+000 1.223793e+000 6.000000e+001
      endloop
   endfacet
   facet normal 6.775218e-001 -7.355027e-001 -2.567994e-015
      outer loop
         vertex 7.926576e+000 1.223793e+000 6.000000e+001
         vertex 7.926576e+000 1.223793e+000 5.043174e-015
         vertex 8.187889e+000 1.470675e+000 5.905162e-015
      endloop
   endfacet
   facet normal 6.958714e-001 -7.181665e-001 -2.507465e-015
      outer loop
         vertex 7.926576e+000 1.223793e+000 6.000000e+001
         vertex 8.187889e+000 1.470675e+000 5.905162e-015
         vertex 8.187889e+000 1.470675e+000 6.000000e+001
      endloop
   endfacet
   facet normal 7.312066e-001 -6.821560e-001 -2.381735e-015
      outer loop
         vertex 8.187889e+000 1.470675e+000 6.000000e+001
         vertex 8.187889e+000 1.470675e+000 5.905162e-015
         vertex 8.429783e+000 1.736614e+000 6.833681e-015
      endloop
   endfacet
   facet normal 7.481924e-001 -6.634818e-001 -2.316534e-015
      outer loop
         vertex 8.187889e+000 1.470675e+000 6.000000e+001
         vertex 8.429783e+000 1.736614e+000 6.833681e-015
         vertex 8.429783e+000 1.736614e+000 6.000000e+001
      endloop
   endfacet
   facet normal 7.807031e-001 -6.249022e-001 -2.181834e-015
      outer loop
         vertex 8.429783e+000 1.736614e+000 6.000000e+001
         vertex 8.429783e+000 1.736614e+000 6.833681e-015
         vertex 8.650871e+000 2.020086e+000 7.823417e-015
      endloop
   endfacet
   facet normal 7.962279e-001 -6.049968e-001 -2.112335e-015
      outer loop
         vertex 8.429783e+000 1.736614e+000 6.000000e+001
         vertex 8.650871e+000 2.020086e+000 7.823417e-015
         vertex 8.650871e+000 2.020086e+000 6.000000e+001
      endloop
   endfacet
   facet normal 8.257278e-001 -5.640689e-001 -1.969436e-015
      outer loop
         vertex 8.650871e+000 2.020086e+000 6.000000e+001
         vertex 8.650871e+000 2.020086e+000 7.823417e-015
         vertex 8.849887e+000 2.319465e+000 8.868696e-015
      endloop
   endfacet
   facet normal 8.397027e-001 -5.430463e-001 -1.896036e-015
      outer loop
         vertex 8.650871e+000 2.020086e+000 6.000000e+001
         vertex 8.849887e+000 2.319465e+000 8.868696e-015
         vertex 8.849887e+000 2.319465e+000 6.000000e+001
      endloop
   endfacet
   facet normal 8.660227e-001 -5.000046e-001 -1.745757e-015
      outer loop
         vertex 8.849887e+000 2.319465e+000 6.000000e+001
         vertex 8.849887e+000 2.319465e+000 8.868696e-015
         vertex 9.025693e+000 2.633039e+000 9.963533e-015
      endloop
   endfacet
   facet normal 8.783678e-001 -4.779854e-001 -1.668877e-015
      outer loop
         vertex 8.849887e+000 2.319465e+000 6.000000e+001
         vertex 9.025693e+000 2.633039e+000 9.963533e-015
         vertex 9.025693e+000 2.633039e+000 6.000000e+001
      endloop
   endfacet
   facet normal 9.013572e-001 -4.330764e-001 -1.512078e-015
      outer loop
         vertex 9.025693e+000 2.633039e+000 6.000000e+001
         vertex 9.025693e+000 2.633039e+000 9.963533e-015
         vertex 9.177279e+000 2.959011e+000 1.110166e-014
      endloop
   endfacet
   facet normal 9.120016e-001 -4.101866e-001 -1.432159e-015
      outer loop
         vertex 9.025693e+000 2.633039e+000 6.000000e+001
         vertex 9.177279e+000 2.959011e+000 1.110166e-014
         vertex 9.177279e+000 2.959011e+000 6.000000e+001
      endloop
   endfacet
   facet normal 9.315287e-001 -3.636676e-001 -1.269739e-015
      outer loop
         vertex 9.177279e+000 2.959011e+000 6.000000e+001
         vertex 9.177279e+000 2.959011e+000 1.110166e-014
         vertex 9.303778e+000 3.295514e+000 1.227655e-014
      endloop
   endfacet
   facet normal 9.404116e-001 -3.400384e-001 -1.187238e-015
      outer loop
         vertex 9.177279e+000 2.959011e+000 6.000000e+001
         vertex 9.303778e+000 3.295514e+000 1.227655e-014
         vertex 9.303778e+000 3.295514e+000 6.000000e+001
      endloop
   endfacet
   facet normal 9.563646e-001 -2.921757e-001 -1.020126e-015
      outer loop
         vertex 9.303778e+000 3.295514e+000 6.000000e+001
         vertex 9.303778e+000 3.295514e+000 1.227655e-014
         vertex 9.404466e+000 3.640620e+000 1.348148e-014
      endloop
   endfacet
   facet normal 9.634349e-001 -2.679423e-001 -9.355157e-016
      outer loop
         vertex 9.303778e+000 3.295514e+000 6.000000e+001
         vertex 9.404466e+000 3.640620e+000 1.348148e-014
         vertex 9.404466e+000 3.640619e+000 6.000000e+001
      endloop
   endfacet
   facet normal 9.757226e-001 -2.190103e-001 -7.646704e-016
      outer loop
         vertex 9.404466e+000 3.640619e+000 6.000000e+001
         vertex 9.404466e+000 3.640620e+000 1.348148e-014
         vertex 9.478765e+000 3.992352e+000 1.470955e-014
      endloop
   endfacet
   facet normal 9.809399e-001 -1.943116e-001 -6.784353e-016
      outer loop
         vertex 9.404466e+000 3.640619e+000 6.000000e+001
         vertex 9.478765e+000 3.992352e+000 1.470955e-014
         vertex 9.478765e+000 3.992352e+000 6.000000e+001
      endloop
   endfacet
   facet normal 9.894916e-001 -1.445904e-001 -5.048347e-016
      outer loop
         vertex 9.478765e+000 3.992352e+000 6.000000e+001
         vertex 9.478765e+000 3.992352e+000 1.470955e-014
         vertex 9.526250e+000 4.348696e+000 1.595371e-014
      endloop
   endfacet
   facet normal 9.928260e-001 -1.195679e-001 -4.174689e-016
      outer loop
         vertex 9.478765e+000 3.992352e+000 6.000000e+001
         vertex 9.526250e+000 4.348696e+000 1.595371e-014
         vertex 9.526250e+000 4.348696e+000 6.000000e+001
      endloop
   endfacet
   facet normal 9.975929e-001 -6.934229e-002 -2.421073e-016
      outer loop
         vertex 9.526250e+000 4.348696e+000 6.000000e+001
         vertex 9.526250e+000 4.348696e+000 1.595371e-014
         vertex 9.546650e+000 4.707611e+000 1.720686e-014
      endloop
   endfacet
   facet normal 9.990254e-001 -4.413923e-002 -1.541113e-016
      outer loop
         vertex 9.526250e+000 4.348696e+000 6.000000e+001
         vertex 9.546650e+000 4.707611e+000 1.720686e-014
         vertex 9.546650e+000 4.707611e+000 6.000000e+001
      endloop
   endfacet
   facet normal 9.999802e-001 6.303018e-003 2.200687e-017
      outer loop
         vertex 9.546650e+000 4.707611e+000 6.000000e+001
         vertex 9.546650e+000 4.707611e+000 1.720686e-014
         vertex 9.539846e+000 5.067040e+000 1.846180e-014
      endloop
   endfacet
   facet normal 9.995024e-001 3.154222e-002 1.101291e-016
      outer loop
         vertex 9.546650e+000 4.707611e+000 6.000000e+001
         vertex 9.539846e+000 5.067040e+000 1.846180e-014
         vertex 9.539846e+000 5.067040e+000 6.000000e+001
      endloop
   endfacet
   facet normal 9.966395e-001 8.191221e-002 2.859950e-016
      outer loop
         vertex 9.539846e+000 5.067040e+000 6.000000e+001
         vertex 9.539846e+000 5.067040e+000 1.846180e-014
         vertex 9.505879e+000 5.424926e+000 1.971135e-014
      endloop
   endfacet
   facet normal 9.942544e-001 1.070430e-001 3.737387e-016
      outer loop
         vertex 9.539846e+000 5.067040e+000 6.000000e+001
         vertex 9.505879e+000 5.424926e+000 1.971135e-014
         vertex 9.505879e+000 5.424926e+000 6.000000e+001
      endloop
   endfacet
   facet normal 9.875903e-001 1.570522e-001 5.483449e-016
      outer loop
         vertex 9.505879e+000 5.424926e+000 6.000000e+001
         vertex 9.505879e+000 5.424926e+000 1.971135e-014
         vertex 9.444943e+000 5.779218e+000 2.094836e-014
      endloop
   endfacet
   facet normal 9.833114e-001 1.819307e-001 6.352075e-016
      outer loop
         vertex 9.505879e+000 5.424926e+000 6.000000e+001
         vertex 9.444943e+000 5.779218e+000 2.094836e-014
         vertex 9.444943e+000 5.779218e+000 6.000000e+001
      endloop
   endfacet
   facet normal 9.728842e-001 2.312927e-001 8.075540e-016
      outer loop
         vertex 9.444943e+000 5.779218e+000 6.000000e+001
         vertex 9.444943e+000 5.779218e+000 2.094836e-014
         vertex 9.357388e+000 6.127886e+000 2.216573e-014
      endloop
   endfacet
   facet normal 9.667360e-001 2.557762e-001 8.930378e-016
      outer loop
         vertex 9.444943e+000 5.779218e+000 6.000000e+001
         vertex 9.357388e+000 6.127886e+000 2.216573e-014
         vertex 9.357388e+000 6.127886e+000 6.000000e+001
      endloop
   endfacet
   facet normal 9.526055e-001 3.042082e-001 1.062137e-015
      outer loop
         vertex 9.357388e+000 6.127886e+000 6.000000e+001
         vertex 9.357388e+000 6.127886e+000 2.216573e-014
         vertex 9.243712e+000 6.468935e+000 2.335649e-014
      endloop
   endfacet
   facet normal 9.446233e-001 3.281567e-001 1.145753e-015
      outer loop
         vertex 9.357388e+000 6.127886e+000 6.000000e+001
         vertex 9.243712e+000 6.468935e+000 2.335649e-014
         vertex 9.243712e+000 6.468935e+000 6.000000e+001
      endloop
   endfacet
   facet normal 9.268704e-001 3.753814e-001 1.310637e-015
      outer loop
         vertex 9.243712e+000 6.468935e+000 6.000000e+001
         vertex 9.243712e+000 6.468935e+000 2.335649e-014
         vertex 9.104570e+000 6.800409e+000 2.451383e-014
      endloop
   endfacet
   facet normal 9.170999e-001 3.986576e-001 1.391905e-015
      outer loop
         vertex 9.243712e+000 6.468935e+000 6.000000e+001
         vertex 9.104570e+000 6.800409e+000 2.451383e-014
         vertex 9.104570e+000 6.800409e+000 6.000000e+001
      endloop
   endfacet
   facet normal 8.958263e-001 4.444043e-001 1.551629e-015
      outer loop
         vertex 9.104570e+000 6.800409e+000 6.000000e+001
         vertex 9.104570e+000 6.800409e+000 2.451383e-014
         vertex 8.940758e+000 7.120412e+000 2.563111e-014
      endloop
   endfacet
   facet normal 8.843234e-001 4.668749e-001 1.630085e-015
      outer loop
         vertex 9.104570e+000 6.800409e+000 6.000000e+001
         vertex 8.940758e+000 7.120412e+000 2.563111e-014
         vertex 8.940758e+000 7.120411e+000 6.000000e+001
      endloop
   endfacet
   facet normal 8.596510e-001 5.108818e-001 1.783734e-015
      outer loop
         vertex 8.940758e+000 7.120411e+000 6.000000e+001
         vertex 8.940758e+000 7.120412e+000 2.563111e-014
         vertex 8.753212e+000 7.427108e+000 2.670194e-014
      endloop
   endfacet
   facet normal 8.464815e-001 5.324181e-001 1.858928e-015
      outer loop
         vertex 8.940758e+000 7.120411e+000 6.000000e+001
         vertex 8.753212e+000 7.427108e+000 2.670194e-014
         vertex 8.753212e+000 7.427108e+000 6.000000e+001
      endloop
   endfacet
   facet normal 8.185516e-001 5.744330e-001 2.005622e-015
      outer loop
         vertex 8.753212e+000 7.427108e+000 6.000000e+001
         vertex 8.753212e+000 7.427108e+000 2.670194e-014
         vertex 8.543010e+000 7.718743e+000 2.772017e-014
      endloop
   endfacet
   facet normal 8.037912e-001 5.949116e-001 2.077123e-015
      outer loop
         vertex 8.753212e+000 7.427108e+000 6.000000e+001
         vertex 8.543010e+000 7.718743e+000 2.772017e-014
         vertex 8.543010e+000 7.718742e+000 6.000000e+001
      endloop
   endfacet
   facet normal 7.727637e-001 6.346939e-001 2.216022e-015
      outer loop
         vertex 8.543010e+000 7.718742e+000 6.000000e+001
         vertex 8.543010e+000 7.718743e+000 2.772017e-014
         vertex 8.311353e+000 7.993644e+000 2.867999e-014
      endloop
   endfacet
   facet normal 7.564967e-001 6.539976e-001 2.283420e-015
      outer loop
         vertex 8.543010e+000 7.718742e+000 6.000000e+001
         vertex 8.311353e+000 7.993644e+000 2.867999e-014
         vertex 8.311353e+000 7.993644e+000 6.000000e+001
      endloop
   endfacet
   facet normal 7.225494e-001 6.913193e-001 2.413728e-015
      outer loop
         vertex 8.311353e+000 7.993644e+000 6.000000e+001
         vertex 8.311353e+000 7.993644e+000 2.867999e-014
         vertex 8.059568e+000 8.250239e+000 2.957588e-014
      endloop
   endfacet
   facet normal 7.048691e-001 7.093374e-001 2.476638e-015
      outer loop
         vertex 8.311353e+000 7.993644e+000 6.000000e+001
         vertex 8.059568e+000 8.250239e+000 2.957588e-014
         vertex 8.059568e+000 8.250239e+000 6.000000e+001
      endloop
   endfacet
   facet normal 6.681964e-001 7.439849e-001 2.597609e-015
      outer loop
         vertex 8.059568e+000 8.250239e+000 6.000000e+001
         vertex 8.059568e+000 8.250239e+000 2.957588e-014
         vertex 7.789100e+000 8.487057e+000 3.040273e-014
      endloop
   endfacet
   facet normal 6.492041e-001 7.606143e-001 2.655670e-015
      outer loop
         vertex 8.059568e+000 8.250239e+000 6.000000e+001
         vertex 7.789100e+000 8.487057e+000 3.040273e-014
         vertex 7.789100e+000 8.487057e+000 6.000000e+001
      endloop
   endfacet
   facet normal 6.100161e-001 7.923890e-001 2.766611e-015
      outer loop
         vertex 7.789100e+000 8.487057e+000 6.000000e+001
         vertex 7.789100e+000 8.487057e+000 3.040273e-014
         vertex 7.501496e+000 8.702741e+000 3.115578e-014
      endloop
   endfacet
   facet normal 5.898204e-001 8.075344e-001 2.819491e-015
      outer loop
         vertex 7.789100e+000 8.487057e+000 6.000000e+001
         vertex 7.501496e+000 8.702741e+000 3.115578e-014
         vertex 7.501496e+000 8.702741e+000 6.000000e+001
      endloop
   endfacet
   facet normal 5.483416e-001 8.362544e-001 2.919767e-015
      outer loop
         vertex 7.501496e+000 8.702741e+000 6.000000e+001
         vertex 7.501496e+000 8.702741e+000 3.115578e-014
         vertex 7.198403e+000 8.896056e+000 3.183074e-014
      endloop
   endfacet
   facet normal 5.270585e-001 8.498290e-001 2.967162e-015
      outer loop
         vertex 7.501496e+000 8.702741e+000 6.000000e+001
         vertex 7.198403e+000 8.896056e+000 3.183074e-014
         vertex 7.198403e+000 8.896056e+000 6.000000e+001
      endloop
   endfacet
   facet normal 4.835263e-001 8.753298e-001 3.056198e-015
      outer loop
         vertex 7.198403e+000 8.896056e+000 6.000000e+001
         vertex 7.198403e+000 8.896056e+000 3.183074e-014
         vertex 6.881558e+000 9.065896e+000 3.242373e-014
      endloop
   endfacet
   facet normal 4.612775e-001 8.872559e-001 3.097838e-015
      outer loop
         vertex 7.198403e+000 8.896056e+000 6.000000e+001
         vertex 6.881558e+000 9.065896e+000 3.242373e-014
         vertex 6.881558e+000 9.065895e+000 6.000000e+001
      endloop
   endfacet
   facet normal 4.159415e-001 9.093913e-001 3.175123e-015
      outer loop
         vertex 6.881558e+000 9.065895e+000 6.000000e+001
         vertex 6.881558e+000 9.065896e+000 3.242373e-014
         vertex 6.552776e+000 9.211286e+000 3.293136e-014
      endloop
   endfacet
   facet normal 3.928544e-001 9.196007e-001 3.210769e-015
      outer loop
         vertex 6.881558e+000 9.065895e+000 6.000000e+001
         vertex 6.552776e+000 9.211286e+000 3.293136e-014
         vertex 6.552776e+000 9.211286e+000 6.000000e+001
      endloop
   endfacet
   facet normal 3.459742e-001 9.382440e-001 3.275862e-015
      outer loop
         vertex 6.552776e+000 9.211286e+000 6.000000e+001
         vertex 6.552776e+000 9.211286e+000 3.293136e-014
         vertex 6.213940e+000 9.331394e+000 3.335072e-014
      endloop
   endfacet
   facet normal 3.221810e-001 9.466781e-001 3.305309e-015
      outer loop
         vertex 6.552776e+000 9.211286e+000 6.000000e+001
         vertex 6.213940e+000 9.331394e+000 3.335072e-014
         vertex 6.213940e+000 9.331394e+000 6.000000e+001
      endloop
   endfacet
   facet normal 2.740251e-001 9.617226e-001 3.357836e-015
      outer loop
         vertex 6.213940e+000 9.331394e+000 6.000000e+001
         vertex 6.213940e+000 9.331394e+000 3.335072e-014
         vertex 5.866991e+000 9.425533e+000 3.367940e-014
      endloop
   endfacet
   facet normal 2.496622e-001 9.683330e-001 3.380917e-015
      outer loop
         vertex 6.213940e+000 9.331394e+000 6.000000e+001
         vertex 5.866991e+000 9.425533e+000 3.367940e-014
         vertex 5.866991e+000 9.425533e+000 6.000000e+001
      endloop
   endfacet
   facet normal 2.005064e-001 9.796924e-001 3.420578e-015
      outer loop
         vertex 5.866991e+000 9.425533e+000 6.000000e+001
         vertex 5.866991e+000 9.425533e+000 3.367940e-014
         vertex 5.513916e+000 9.493163e+000 3.391553e-014
      endloop
   endfacet
   facet normal 1.757134e-001 9.844413e-001 3.437159e-015
      outer loop
         vertex 5.866991e+000 9.425533e+000 6.000000e+001
         vertex 5.513916e+000 9.493163e+000 3.391553e-014
         vertex 5.513916e+000 9.493163e+000 6.000000e+001
      endloop
   endfacet
   facet normal 1.258392e-001 9.920506e-001 3.463726e-015
      outer loop
         vertex 5.513916e+000 9.493163e+000 6.000000e+001
         vertex 5.513916e+000 9.493163e+000 3.391553e-014
         vertex 5.156737e+000 9.533896e+000 3.405774e-014
      endloop
   endfacet
   facet normal 1.007581e-001 9.949110e-001 3.473713e-015
      outer loop
         vertex 5.513916e+000 9.493163e+000 6.000000e+001
         vertex 5.156737e+000 9.533896e+000 3.405774e-014
         vertex 5.156737e+000 9.533896e+000 6.000000e+001
      endloop
   endfacet
   facet normal 5.045128e-002 9.987265e-001 3.487035e-015
      outer loop
         vertex 5.156737e+000 9.533896e+000 6.000000e+001
         vertex 5.156737e+000 9.533896e+000 3.405774e-014
         vertex 4.797500e+000 9.547500e+000 3.410524e-014
      endloop
   endfacet
   facet normal 2.522564e-002 9.996818e-001 3.490370e-015
      outer loop
         vertex 5.156737e+000 9.533896e+000 6.000000e+001
         vertex 4.797500e+000 9.547500e+000 3.410524e-014
         vertex 4.797500e+000 9.547500e+000 6.000000e+001
      endloop
   endfacet
   facet normal -2.522564e-002 9.996818e-001 3.490370e-015
      outer loop
         vertex 4.797500e+000 9.547500e+000 6.000000e+001
         vertex 4.797500e+000 9.547500e+000 3.410524e-014
         vertex 4.438263e+000 9.533896e+000 3.405774e-014
      endloop
   endfacet
   facet normal -5.045128e-002 9.987265e-001 3.487035e-015
      outer loop
         vertex 4.797500e+000 9.547500e+000 6.000000e+001
         vertex 4.438263e+000 9.533896e+000 3.405774e-014
         vertex 4.438263e+000 9.533896e+000 6.000000e+001
      endloop
   endfacet
   facet normal -1.007581e-001 9.949110e-001 3.473713e-015
      outer loop
         vertex 4.438263e+000 9.533896e+000 6.000000e+001
         vertex 4.438263e+000 9.533896e+000 3.405774e-014
         vertex 4.081085e+000 9.493163e+000 3.391553e-014
      endloop
   endfacet
   facet normal -1.258392e-001 9.920506e-001 3.463726e-015
      outer loop
         vertex 4.438263e+000 9.533896e+000 6.000000e+001
         vertex 4.081085e+000 9.493163e+000 3.391553e-014
         vertex 4.081085e+000 9.493163e+000 6.000000e+001
      endloop
   endfacet
   facet normal -1.757134e-001 9.844414e-001 3.437159e-015
      outer loop
         vertex 4.081085e+000 9.493163e+000 6.000000e+001
         vertex 4.081085e+000 9.493163e+000 3.391553e-014
         vertex 3.728009e+000 9.425533e+000 3.367940e-014
      endloop
   endfacet
   facet normal -2.005064e-001 9.796924e-001 3.420578e-015
      outer loop
         vertex 4.081085e+000 9.493163e+000 6.000000e+001
         vertex 3.728009e+000 9.425533e+000 3.367940e-014
         vertex 3.728009e+000 9.425533e+000 6.000000e+001
      endloop
   endfacet
   facet normal -2.496622e-001 9.683330e-001 3.380917e-015
      outer loop
         vertex 3.728009e+000 9.425533e+000 6.000000e+001
         vertex 3.728009e+000 9.425533e+000 3.367940e-014
         vertex 3.381060e+000 9.331394e+000 3.335072e-014
      endloop
   endfacet
   facet normal -2.740251e-001 9.617226e-001 3.357836e-015
      outer loop
         vertex 3.728009e+000 9.425533e+000 6.000000e+001
         vertex 3.381060e+000 9.331394e+000 3.335072e-014
         vertex 3.381060e+000 9.331394e+000 6.000000e+001
      endloop
   endfacet
   facet normal -3.221810e-001 9.466781e-001 3.305309e-015
      outer loop
         vertex 3.381060e+000 9.331394e+000 6.000000e+001
         vertex 3.381060e+000 9.331394e+000 3.335072e-014
         vertex 3.042224e+000 9.211286e+000 3.293136e-014
      endloop
   endfacet
   facet normal -3.459742e-001 9.382440e-001 3.275862e-015
      outer loop
         vertex 3.381060e+000 9.331394e+000 6.000000e+001
         vertex 3.042224e+000 9.211286e+000 3.293136e-014
         vertex 3.042224e+000 9.211286e+000 6.000000e+001
      endloop
   endfacet
   facet normal -3.928544e-001 9.196007e-001 3.210769e-015
      outer loop
         vertex 3.042224e+000 9.211286e+000 6.000000e+001
         vertex 3.042224e+000 9.211286e+000 3.293136e-014
         vertex 2.713442e+000 9.065896e+000 3.242373e-014
      endloop
   endfacet
   facet normal -4.159415e-001 9.093914e-001 3.175123e-015
      outer loop
         vertex 3.042224e+000 9.211286e+000 6.000000e+001
         vertex 2.713442e+000 9.065896e+000 3.242373e-014
         vertex 2.713442e+000 9.065895e+000 6.000000e+001
      endloop
   endfacet
   facet normal -4.612775e-001 8.872559e-001 3.097838e-015
      outer loop
         vertex 2.713442e+000 9.065895e+000 6.000000e+001
         vertex 2.713442e+000 9.065896e+000 3.242373e-014
         vertex 2.396597e+000 8.896056e+000 3.183074e-014
      endloop
   endfacet
   facet normal -4.835264e-001 8.753298e-001 3.056198e-015
      outer loop
         vertex 2.713442e+000 9.065895e+000 6.000000e+001
         vertex 2.396597e+000 8.896056e+000 3.183074e-014
         vertex 2.396597e+000 8.896056e+000 6.000000e+001
      endloop
   endfacet
   facet normal -5.270585e-001 8.498290e-001 2.967162e-015
      outer loop
         vertex 2.396597e+000 8.896056e+000 6.000000e+001
         vertex 2.396597e+000 8.896056e+000 3.183074e-014
         vertex 2.093504e+000 8.702741e+000 3.115578e-014
      endloop
   endfacet
   facet normal -5.483416e-001 8.362544e-001 2.919767e-015
      outer loop
         vertex 2.396597e+000 8.896056e+000 6.000000e+001
         vertex 2.093504e+000 8.702741e+000 3.115578e-014
         vertex 2.093504e+000 8.702741e+000 6.000000e+001
      endloop
   endfacet
   facet normal -5.898204e-001 8.075344e-001 2.819491e-015
      outer loop
         vertex 2.093504e+000 8.702741e+000 6.000000e+001
         vertex 2.093504e+000 8.702741e+000 3.115578e-014
         vertex 1.805900e+000 8.487057e+000 3.040273e-014
      endloop
   endfacet
   facet normal -6.100160e-001 7.923890e-001 2.766612e-015
      outer loop
         vertex 2.093504e+000 8.702741e+000 6.000000e+001
         vertex 1.805900e+000 8.487057e+000 3.040273e-014
         vertex 1.805900e+000 8.487057e+000 6.000000e+001
      endloop
   endfacet
   facet normal -6.492041e-001 7.606143e-001 2.655670e-015
      outer loop
         vertex 1.805900e+000 8.487057e+000 6.000000e+001
         vertex 1.805900e+000 8.487057e+000 3.040273e-014
         vertex 1.535431e+000 8.250239e+000 2.957588e-014
      endloop
   endfacet
   facet normal -6.681964e-001 7.439849e-001 2.597609e-015
      outer loop
         vertex 1.805900e+000 8.487057e+000 6.000000e+001
         vertex 1.535431e+000 8.250239e+000 2.957588e-014
         vertex 1.535431e+000 8.250239e+000 6.000000e+001
      endloop
   endfacet
   facet normal -7.048691e-001 7.093374e-001 2.476638e-015
      outer loop
         vertex 1.535431e+000 8.250239e+000 6.000000e+001
         vertex 1.535431e+000 8.250239e+000 2.957588e-014
         vertex 1.283648e+000 7.993644e+000 2.867999e-014
      endloop
   endfacet
   facet normal -7.225494e-001 6.913193e-001 2.413728e-015
      outer loop
         vertex 1.535431e+000 8.250239e+000 6.000000e+001
         vertex 1.283648e+000 7.993644e+000 2.867999e-014
         vertex 1.283648e+000 7.993644e+000 6.000000e+001
      endloop
   endfacet
   facet normal -7.564967e-001 6.539976e-001 2.283420e-015
      outer loop
         vertex 1.283648e+000 7.993644e+000 6.000000e+001
         vertex 1.283648e+000 7.993644e+000 2.867999e-014
         vertex 1.051991e+000 7.718743e+000 2.772017e-014
      endloop
   endfacet
   facet normal -7.727637e-001 6.346939e-001 2.216022e-015
      outer loop
         vertex 1.283648e+000 7.993644e+000 6.000000e+001
         vertex 1.051991e+000 7.718743e+000 2.772017e-014
         vertex 1.051991e+000 7.718742e+000 6.000000e+001
      endloop
   endfacet
   facet normal -8.037911e-001 5.949116e-001 2.077123e-015
      outer loop
         vertex 1.051991e+000 7.718742e+000 6.000000e+001
         vertex 1.051991e+000 7.718743e+000 2.772017e-014
         vertex 8.417876e-001 7.427108e+000 2.670194e-014
      endloop
   endfacet
   facet normal -8.185516e-001 5.744330e-001 2.005622e-015
      outer loop
         vertex 1.051991e+000 7.718742e+000 6.000000e+001
         vertex 8.417876e-001 7.427108e+000 2.670194e-014
         vertex 8.417876e-001 7.427108e+000 6.000000e+001
      endloop
   endfacet
   facet normal -8.464815e-001 5.324181e-001 1.858928e-015
      outer loop
         vertex 8.417876e-001 7.427108e+000 6.000000e+001
         vertex 8.417876e-001 7.427108e+000 2.670194e-014
         vertex 6.542425e-001 7.120412e+000 2.563111e-014
      endloop
   endfacet
   facet normal -8.596510e-001 5.108818e-001 1.783734e-015
      outer loop
         vertex 8.417876e-001 7.427108e+000 6.000000e+001
         vertex 6.542425e-001 7.120412e+000 2.563111e-014
         vertex 6.542425e-001 7.120411e+000 6.000000e+001
      endloop
   endfacet
   facet normal -8.843234e-001 4.668749e-001 1.630085e-015
      outer loop
         vertex 6.542425e-001 7.120411e+000 6.000000e+001
         vertex 6.542425e-001 7.120412e+000 2.563111e-014
         vertex 4.904298e-001 6.800409e+000 2.451383e-014
      endloop
   endfacet
   facet normal -8.958263e-001 4.444043e-001 1.551629e-015
      outer loop
         vertex 6.542425e-001 7.120411e+000 6.000000e+001
         vertex 4.904298e-001 6.800409e+000 2.451383e-014
         vertex 4.904298e-001 6.800409e+000 6.000000e+001
      endloop
   endfacet
   facet normal -9.170999e-001 3.986576e-001 1.391905e-015
      outer loop
         vertex 4.904298e-001 6.800409e+000 6.000000e+001
         vertex 4.904298e-001 6.800409e+000 2.451383e-014
         vertex 3.512874e-001 6.468935e+000 2.335649e-014
      endloop
   endfacet
   facet normal -9.268704e-001 3.753814e-001 1.310637e-015
      outer loop
         vertex 4.904298e-001 6.800409e+000 6.000000e+001
         vertex 3.512874e-001 6.468935e+000 2.335649e-014
         vertex 3.512874e-001 6.468935e+000 6.000000e+001
      endloop
   endfacet
   facet normal -9.446233e-001 3.281567e-001 1.145753e-015
      outer loop
         vertex 3.512874e-001 6.468935e+000 6.000000e+001
         vertex 3.512874e-001 6.468935e+000 2.335649e-014
         vertex 2.376130e-001 6.127886e+000 2.216573e-014
      endloop
   endfacet
   facet normal -9.526055e-001 3.042082e-001 1.062137e-015
      outer loop
         vertex 3.512874e-001 6.468935e+000 6.000000e+001
         vertex 2.376130e-001 6.127886e+000 2.216573e-014
         vertex 2.376130e-001 6.127886e+000 6.000000e+001
      endloop
   endfacet
   facet normal -9.667360e-001 2.557762e-001 8.930378e-016
      outer loop
         vertex 2.376130e-001 6.127886e+000 6.000000e+001
         vertex 2.376130e-001 6.127886e+000 2.216573e-014
         vertex 1.500566e-001 5.779218e+000 2.094836e-014
      endloop
   endfacet
   facet normal -9.728842e-001 2.312927e-001 8.075540e-016
      outer loop
         vertex 2.376130e-001 6.127886e+000 6.000000e+001
         vertex 1.500566e-001 5.779218e+000 2.094836e-014
         vertex 1.500566e-001 5.779218e+000 6.000000e+001
      endloop
   endfacet
   facet normal -9.833114e-001 1.819307e-001 6.352075e-016
      outer loop
         vertex 1.500566e-001 5.779218e+000 6.000000e+001
         vertex 1.500566e-001 5.779218e+000 2.094836e-014
         vertex 8.912058e-002 5.424926e+000 1.971135e-014
      endloop
   endfacet
   facet normal -9.875903e-001 1.570522e-001 5.483449e-016
      outer loop
         vertex 1.500566e-001 5.779218e+000 6.000000e+001
         vertex 8.912058e-002 5.424926e+000 1.971135e-014
         vertex 8.912058e-002 5.424926e+000 6.000000e+001
      endloop
   endfacet
   facet normal -9.942544e-001 1.070430e-001 3.737386e-016
      outer loop
         vertex 8.912058e-002 5.424926e+000 6.000000e+001
         vertex 8.912058e-002 5.424926e+000 1.971135e-014
         vertex 5.515385e-002 5.067040e+000 1.846180e-014
      endloop
   endfacet
   facet normal -9.966395e-001 8.191221e-002 2.859950e-016
      outer loop
         vertex 8.912058e-002 5.424926e+000 6.000000e+001
         vertex 5.515385e-002 5.067040e+000 1.846180e-014
         vertex 5.515385e-002 5.067040e+000 6.000000e+001
      endloop
   endfacet
   facet normal -9.995024e-001 3.154222e-002 1.101291e-016
      outer loop
         vertex 5.515385e-002 5.067040e+000 6.000000e+001
         vertex 5.515385e-002 5.067040e+000 1.846180e-014
         vertex 4.835054e-002 4.707611e+000 1.720686e-014
      endloop
   endfacet
   facet normal -9.999802e-001 6.303018e-003 2.200687e-017
      outer loop
         vertex 5.515385e-002 5.067040e+000 6.000000e+001
         vertex 4.835054e-002 4.707611e+000 1.720686e-014
         vertex 4.835054e-002 4.707611e+000 6.000000e+001
      endloop
   endfacet
   facet normal -9.990254e-001 -4.413923e-002 -1.541113e-016
      outer loop
         vertex 4.835054e-002 4.707611e+000 6.000000e+001
         vertex 4.835054e-002 4.707611e+000 1.720686e-014
         vertex 6.875023e-002 4.348696e+000 1.595371e-014
      endloop
   endfacet
   facet normal -9.975929e-001 -6.934227e-002 -2.421072e-016
      outer loop
         vertex 4.835054e-002 4.707611e+000 6.000000e+001
         vertex 6.875023e-002 4.348696e+000 1.595371e-014
         vertex 6.875023e-002 4.348696e+000 6.000000e+001
      endloop
   endfacet
   facet normal -9.928260e-001 -1.195679e-001 -4.174689e-016
      outer loop
         vertex 6.875023e-002 4.348696e+000 6.000000e+001
         vertex 6.875023e-002 4.348696e+000 1.595371e-014
         vertex 1.162356e-001 3.992352e+000 1.470955e-014
      endloop
   endfacet
   facet normal -9.894916e-001 -1.445904e-001 -5.048347e-016
      outer loop
         vertex 6.875023e-002 4.348696e+000 6.000000e+001
         vertex 1.162356e-001 3.992352e+000 1.470955e-014
         vertex 1.162356e-001 3.992352e+000 6.000000e+001
      endloop
   endfacet
   facet normal -9.809399e-001 -1.943116e-001 -6.784353e-016
      outer loop
         vertex 1.162356e-001 3.992352e+000 6.000000e+001
         vertex 1.162356e-001 3.992352e+000 1.470955e-014
         vertex 1.905351e-001 3.640620e+000 1.348148e-014
      endloop
   endfacet
   facet normal -9.757226e-001 -2.190103e-001 -7.646704e-016
      outer loop
         vertex 1.162356e-001 3.992352e+000 6.000000e+001
         vertex 1.905351e-001 3.640620e+000 1.348148e-014
         vertex 1.905351e-001 3.640619e+000 6.000000e+001
      endloop
   endfacet
   facet normal -9.634349e-001 -2.679424e-001 -9.355158e-016
      outer loop
         vertex 1.905351e-001 3.640619e+000 6.000000e+001
         vertex 1.905351e-001 3.640620e+000 1.348148e-014
         vertex 2.912227e-001 3.295514e+000 1.227655e-014
      endloop
   endfacet
   facet normal -9.563646e-001 -2.921757e-001 -1.020126e-015
      outer loop
         vertex 1.905351e-001 3.640619e+000 6.000000e+001
         vertex 2.912227e-001 3.295514e+000 1.227655e-014
         vertex 2.912227e-001 3.295514e+000 6.000000e+001
      endloop
   endfacet
   facet normal -9.404116e-001 -3.400384e-001 -1.187238e-015
      outer loop
         vertex 2.912227e-001 3.295514e+000 6.000000e+001
         vertex 2.912227e-001 3.295514e+000 1.227655e-014
         vertex 4.177219e-001 2.959011e+000 1.110166e-014
      endloop
   endfacet
   facet normal -9.315287e-001 -3.636676e-001 -1.269739e-015
      outer loop
         vertex 2.912227e-001 3.295514e+000 6.000000e+001
         vertex 4.177219e-001 2.959011e+000 1.110166e-014
         vertex 4.177219e-001 2.959011e+000 6.000000e+001
      endloop
   endfacet
   facet normal -9.120016e-001 -4.101866e-001 -1.432159e-015
      outer loop
         vertex 4.177219e-001 2.959011e+000 6.000000e+001
         vertex 4.177219e-001 2.959011e+000 1.110166e-014
         vertex 5.693077e-001 2.633039e+000 9.963533e-015
      endloop
   endfacet
   facet normal -9.013572e-001 -4.330764e-001 -1.512078e-015
      outer loop
         vertex 4.177219e-001 2.959011e+000 6.000000e+001
         vertex 5.693077e-001 2.633039e+000 9.963533e-015
         vertex 5.693077e-001 2.633039e+000 6.000000e+001
      endloop
   endfacet
   facet normal -8.783678e-001 -4.779854e-001 -1.668877e-015
      outer loop
         vertex 5.693077e-001 2.633039e+000 6.000000e+001
         vertex 5.693077e-001 2.633039e+000 9.963533e-015
         vertex 7.451125e-001 2.319465e+000 8.868696e-015
      endloop
   endfacet
   facet normal -8.660227e-001 -5.000046e-001 -1.745757e-015
      outer loop
         vertex 5.693077e-001 2.633039e+000 6.000000e+001
         vertex 7.451125e-001 2.319465e+000 8.868696e-015
         vertex 7.451125e-001 2.319465e+000 6.000000e+001
      endloop
   endfacet
   facet normal -8.397027e-001 -5.430463e-001 -1.896036e-015
      outer loop
         vertex 7.451125e-001 2.319465e+000 6.000000e+001
         vertex 7.451125e-001 2.319465e+000 8.868696e-015
         vertex 9.441292e-001 2.020086e+000 7.823417e-015
      endloop
   endfacet
   facet normal -8.257278e-001 -5.640689e-001 -1.969436e-015
      outer loop
         vertex 7.451125e-001 2.319465e+000 6.000000e+001
         vertex 9.441292e-001 2.020086e+000 7.823417e-015
         vertex 9.441292e-001 2.020086e+000 6.000000e+001
      endloop
   endfacet
   facet normal -7.962280e-001 -6.049967e-001 -2.112335e-015
      outer loop
         vertex 9.441292e-001 2.020086e+000 6.000000e+001
         vertex 9.441292e-001 2.020086e+000 7.823417e-015
         vertex 1.165218e+000 1.736614e+000 6.833681e-015
      endloop
   endfacet
   facet normal -7.807031e-001 -6.249022e-001 -2.181834e-015
      outer loop
         vertex 9.441292e-001 2.020086e+000 6.000000e+001
         vertex 1.165218e+000 1.736614e+000 6.833681e-015
         vertex 1.165218e+000 1.736614e+000 6.000000e+001
      endloop
   endfacet
   facet normal -7.481924e-001 -6.634818e-001 -2.316534e-015
      outer loop
         vertex 1.165218e+000 1.736614e+000 6.000000e+001
         vertex 1.165218e+000 1.736614e+000 6.833681e-015
         vertex 1.407111e+000 1.470675e+000 5.905162e-015
      endloop
   endfacet
   facet normal -7.312066e-001 -6.821560e-001 -2.381735e-015
      outer loop
         vertex 1.165218e+000 1.736614e+000 6.000000e+001
         vertex 1.407111e+000 1.470675e+000 5.905162e-015
         vertex 1.407111e+000 1.470675e+000 6.000000e+001
      endloop
   endfacet
   facet normal -6.958714e-001 -7.181665e-001 -2.507465e-015
      outer loop
         vertex 1.407111e+000 1.470675e+000 6.000000e+001
         vertex 1.407111e+000 1.470675e+000 5.905162e-015
         vertex 1.668425e+000 1.223793e+000 5.043174e-015
      endloop
   endfacet
   facet normal -6.775218e-001 -7.355027e-001 -2.567994e-015
      outer loop
         vertex 1.407111e+000 1.470675e+000 6.000000e+001
         vertex 1.668425e+000 1.223793e+000 5.043174e-015
         vertex 1.668425e+000 1.223793e+000 6.000000e+001
      endloop
   endfacet
   facet normal -6.395644e-001 -7.687375e-001 -2.684033e-015
      outer loop
         vertex 1.668425e+000 1.223793e+000 6.000000e+001
         vertex 1.668425e+000 1.223793e+000 5.043174e-015
         vertex 1.947661e+000 9.973794e-001 4.252658e-015
      endloop
   endfacet
   facet normal -6.199564e-001 -7.846363e-001 -2.739543e-015
      outer loop
         vertex 1.668425e+000 1.223793e+000 6.000000e+001
         vertex 1.947661e+000 9.973794e-001 4.252658e-015
         vertex 1.947661e+000 9.973794e-001 6.000000e+001
      endloop
   endfacet
   facet normal -5.795941e-001 -8.149053e-001 -2.845227e-015
      outer loop
         vertex 1.947661e+000 9.973794e-001 6.000000e+001
         vertex 1.947661e+000 9.973794e-001 4.252658e-015
         vertex 2.243221e+000 7.927330e-001 3.538138e-015
      endloop
   endfacet
   facet normal -5.588397e-001 -8.292757e-001 -2.895400e-015
      outer loop
         vertex 1.947661e+000 9.973794e-001 6.000000e+001
         vertex 2.243221e+000 7.927330e-001 3.538138e-015
         vertex 2.243221e+000 7.927330e-001 6.000000e+001
      endloop
   endfacet
   facet normal -5.163038e-001 -8.564055e-001 -2.990124e-015
      outer loop
         vertex 2.243221e+000 7.927330e-001 6.000000e+001
         vertex 2.243221e+000 7.927330e-001 3.538138e-015
         vertex 2.553412e+000 6.110254e-001 2.903709e-015
      endloop
   endfacet
   facet normal -4.945222e-001 -8.691650e-001 -3.034673e-015
      outer loop
         vertex 2.243221e+000 7.927330e-001 6.000000e+001
         vertex 2.553412e+000 6.110254e-001 2.903709e-015
         vertex 2.553412e+000 6.110254e-001 6.000000e+001
      endloop
   endfacet
   facet normal -4.500562e-001 -8.930002e-001 -3.117894e-015
      outer loop
         vertex 2.553412e+000 6.110254e-001 6.000000e+001
         vertex 2.553412e+000 6.110254e-001 2.903709e-015
         vertex 2.876457e+000 4.532980e-001 2.353007e-015
      endloop
   endfacet
   facet normal -4.273720e-001 -9.040759e-001 -3.156564e-015
      outer loop
         vertex 2.553412e+000 6.110254e-001 6.000000e+001
         vertex 2.876457e+000 4.532980e-001 2.353007e-015
         vertex 2.876457e+000 4.532980e-001 6.000000e+001
      endloop
   endfacet
   facet normal -3.812309e-001 -9.244798e-001 -3.227804e-015
      outer loop
         vertex 2.876457e+000 4.532980e-001 6.000000e+001
         vertex 2.876457e+000 4.532980e-001 2.353007e-015
         vertex 3.210505e+000 3.204532e-001 1.889182e-015
      endloop
   endfacet
   facet normal -3.577740e-001 -9.338082e-001 -3.260374e-015
      outer loop
         vertex 2.876457e+000 4.532980e-001 6.000000e+001
         vertex 3.210505e+000 3.204532e-001 1.889182e-015
         vertex 3.210505e+000 3.204532e-001 6.000000e+001
      endloop
   endfacet
   facet normal -3.102218e-001 -9.506642e-001 -3.319226e-015
      outer loop
         vertex 3.210505e+000 3.204532e-001 6.000000e+001
         vertex 3.210505e+000 3.204532e-001 1.889182e-015
         vertex 3.553644e+000 2.132528e-001 1.514894e-015
      endloop
   endfacet
   facet normal -2.861265e-001 -9.581919e-001 -3.345509e-015
      outer loop
         vertex 3.210505e+000 3.204532e-001 6.000000e+001
         vertex 3.553644e+000 2.132528e-001 1.514894e-015
         vertex 3.553644e+000 2.132528e-001 6.000000e+001
      endloop
   endfacet
   facet normal -2.374358e-001 -9.714032e-001 -3.391636e-015
      outer loop
         vertex 3.553644e+000 2.132528e-001 6.000000e+001
         vertex 3.553644e+000 2.132528e-001 1.514894e-015
         vertex 3.903907e+000 1.323107e-001 1.232286e-015
      endloop
   endfacet
   facet normal -2.128402e-001 -9.770870e-001 -3.411481e-015
      outer loop
         vertex 3.553644e+000 2.132528e-001 6.000000e+001
         vertex 3.903907e+000 1.323107e-001 1.232286e-015
         vertex 3.903907e+000 1.323107e-001 6.000000e+001
      endloop
   endfacet
   facet normal -1.632898e-001 -9.865782e-001 -3.444619e-015
      outer loop
         vertex 3.903907e+000 1.323107e-001 6.000000e+001
         vertex 3.903907e+000 1.323107e-001 1.232286e-015
         vertex 4.259289e+000 7.809047e-002 1.042977e-015
      endloop
   endfacet
   facet normal -1.383348e-001 -9.903855e-001 -3.457912e-015
      outer loop
         vertex 3.903907e+000 1.323107e-001 6.000000e+001
         vertex 4.259289e+000 7.809047e-002 1.042977e-015
         vertex 4.259289e+000 7.809047e-002 6.000000e+001
      endloop
   endfacet
   facet normal -8.820844e-002 -9.961020e-001 -3.477872e-015
      outer loop
         vertex 4.259289e+000 7.809047e-002 6.000000e+001
         vertex 4.259289e+000 7.809047e-002 1.042977e-015
         vertex 4.617753e+000 5.090237e-002 9.480504e-016
      endloop
   endfacet
   facet normal -6.303700e-002 -9.980112e-001 -3.484537e-015
      outer loop
         vertex 4.259289e+000 7.809047e-002 6.000000e+001
         vertex 4.617753e+000 5.090237e-002 9.480504e-016
         vertex 4.617753e+000 5.090237e-002 6.000000e+001
      endloop
   endfacet
   facet normal -2.523167e-002 -9.996817e-001 -3.490370e-015
      outer loop
         vertex 4.617753e+000 5.090237e-002 6.000000e+001
         vertex 4.617753e+000 5.090237e-002 9.480504e-016
         vertex 4.797500e+000 4.750025e-002 6.000000e+001
      endloop
   endfacet
   facet normal 0.000000e+000 -3.491481e-015 1.000000e+000
      outer loop
         vertex 8.429783e+000 1.736614e+000 6.000000e+001
         vertex 8.650871e+000 2.020086e+000 6.000000e+001
         vertex 4.797500e+000 9.547500e+000 6.000000e+001
      endloop
   endfacet
   facet normal 0.000000e+000 -3.491481e-015 1.000000e+000
      outer loop
         vertex 7.351779e+000 7.927330e-001 6.000000e+001
         vertex 7.647339e+000 9.973794e-001 6.000000e+001
         vertex 4.797500e+000 9.547500e+000 6.000000e+001
      endloop
   endfacet
   facet normal 0.000000e+000 -3.491481e-015 1.000000e+000
      outer loop
         vertex 4.797500e+000 9.547500e+000 6.000000e+001
         vertex 4.438263e+000 9.533896e+000 6.000000e+001
         vertex 4.617753e+000 5.090237e-002 6.000000e+001
      endloop
   endfacet
   facet normal 0.000000e+000 -3.491481e-015 1.000000e+000
      outer loop
         vertex 4.617753e+000 5.090237e-002 6.000000e+001
         vertex 4.438263e+000 9.533896e+000 6.000000e+001
         vertex 4.081085e+000 9.493163e+000 6.000000e+001
      endloop
   endfacet
   facet normal 0.000000e+000 -3.491481e-015 1.000000e+000
      outer loop
         vertex 4.617753e+000 5.090237e-002 6.000000e+001
         vertex 4.081085e+000 9.493163e+000 6.000000e+001
         vertex 3.728009e+000 9.425533e+000 6.000000e+001
      endloop
   endfacet
   facet normal 0.000000e+000 -3.491481e-015 1.000000e+000
      outer loop
         vertex 3.728009e+000 9.425533e+000 6.000000e+001
         vertex 3.381060e+000 9.331394e+000 6.000000e+001
         vertex 4.617753e+000 5.090237e-002 6.000000e+001
      endloop
   endfacet
   facet normal 0.000000e+000 -3.491481e-015 1.000000e+000
      outer loop
         vertex 4.617753e+000 5.090237e-002 6.000000e+001
         vertex 3.381060e+000 9.331394e+000 6.000000e+001
         vertex 3.042224e+000 9.211286e+000 6.000000e+001
      endloop
   endfacet
   facet normal 0.000000e+000 -3.491481e-015 1.000000e+000
      outer loop
         vertex 4.617753e+000 5.090237e-002 6.000000e+001
         vertex 3.042224e+000 9.211286e+000 6.000000e+001
         vertex 2.713442e+000 9.065895e+000 6.000000e+001
      endloop
   endfacet
   facet normal 0.000000e+000 -3.491481e-015 1.000000e+000
      outer loop
         vertex 4.617753e+000 5.090237e-002 6.000000e+001
         vertex 4.797500e+000 4.750025e-002 6.000000e+001
         vertex 4.797500e+000 9.547500e+000 6.000000e+001
      endloop
   endfacet
   facet normal 0.000000e+000 -3.491481e-015 1.000000e+000
      outer loop
         vertex 4.797500e+000 9.547500e+000 6.000000e+001
         vertex 4.797500e+000 4.750025e-002 6.000000e+001
         vertex 4.977247e+000 5.090237e-002 6.000000e+001
      endloop
   endfacet
   facet normal 0.000000e+000 -3.491481e-015 1.000000e+000
      outer loop
         vertex 4.797500e+000 9.547500e+000 6.000000e+001
         vertex 4.977247e+000 5.090237e-002 6.000000e+001
         vertex 5.335711e+000 7.809047e-002 6.000000e+001
      endloop
   endfacet
   facet normal 0.000000e+000 -3.491481e-015 1.000000e+000
      outer loop
         vertex 7.647339e+000 9.973794e-001 6.000000e+001
         vertex 7.926576e+000 1.223793e+000 6.000000e+001
         vertex 4.797500e+000 9.547500e+000 6.000000e+001
      endloop
   endfacet
   facet normal 0.000000e+000 -3.491481e-015 1.000000e+000
      outer loop
         vertex 4.797500e+000 9.547500e+000 6.000000e+001
         vertex 7.926576e+000 1.223793e+000 6.000000e+001
         vertex 8.187889e+000 1.470675e+000 6.000000e+001
      endloop
   endfacet
   facet normal 0.000000e+000 -3.491481e-015 1.000000e+000
      outer loop
         vertex 4.797500e+000 9.547500e+000 6.000000e+001
         vertex 8.187889e+000 1.470675e+000 6.000000e+001
         vertex 8.429783e+000 1.736614e+000 6.000000e+001
      endloop
   endfacet
   facet normal 0.000000e+000 -3.491481e-015 1.000000e+000
      outer loop
         vertex 2.376130e-001 6.127886e+000 6.000000e+001
         vertex 4.617753e+000 5.090237e-002 6.000000e+001
         vertex 3.512874e-001 6.468935e+000 6.000000e+001
      endloop
   endfacet
   facet normal 0.000000e+000 -3.491481e-015 1.000000e+000
      outer loop
         vertex 3.512874e-001 6.468935e+000 6.000000e+001
         vertex 4.617753e+000 5.090237e-002 6.000000e+001
         vertex 4.904298e-001 6.800409e+000 6.000000e+001
      endloop
   endfacet
   facet normal 0.000000e+000 -3.491481e-015 1.000000e+000
      outer loop
         vertex 5.335711e+000 7.809047e-002 6.000000e+001
         vertex 5.691093e+000 1.323107e-001 6.000000e+001
         vertex 4.797500e+000 9.547500e+000 6.000000e+001
      endloop
   endfacet
   facet normal 0.000000e+000 -3.491481e-015 1.000000e+000
      outer loop
         vertex 4.797500e+000 9.547500e+000 6.000000e+001
         vertex 5.691093e+000 1.323107e-001 6.000000e+001
         vertex 6.041357e+000 2.132528e-001 6.000000e+001
      endloop
   endfacet
   facet normal 0.000000e+000 -3.491481e-015 1.000000e+000
      outer loop
         vertex 4.797500e+000 9.547500e+000 6.000000e+001
         vertex 6.041357e+000 2.132528e-001 6.000000e+001
         vertex 6.384495e+000 3.204532e-001 6.000000e+001
      endloop
   endfacet
   facet normal 0.000000e+000 -3.491481e-015 1.000000e+000
      outer loop
         vertex 6.384495e+000 3.204532e-001 6.000000e+001
         vertex 6.718544e+000 4.532980e-001 6.000000e+001
         vertex 4.797500e+000 9.547500e+000 6.000000e+001
      endloop
   endfacet
   facet normal 0.000000e+000 -3.491481e-015 1.000000e+000
      outer loop
         vertex 4.797500e+000 9.547500e+000 6.000000e+001
         vertex 6.718544e+000 4.532980e-001 6.000000e+001
         vertex 7.041588e+000 6.110254e-001 6.000000e+001
      endloop
   endfacet
   facet normal 0.000000e+000 -3.491481e-015 1.000000e+000
      outer loop
         vertex 4.797500e+000 9.547500e+000 6.000000e+001
         vertex 7.041588e+000 6.110254e-001 6.000000e+001
         vertex 7.351779e+000 7.927330e-001 6.000000e+001
      endloop
   endfacet
   facet normal 0.000000e+000 -3.491481e-015 1.000000e+000
      outer loop
         vertex 3.210505e+000 3.204532e-001 6.000000e+001
         vertex 3.553644e+000 2.132528e-001 6.000000e+001
         vertex 2.912227e-001 3.295514e+000 6.000000e+001
      endloop
   endfacet
   facet normal 0.000000e+000 -3.491481e-015 1.000000e+000
      outer loop
         vertex 2.912227e-001 3.295514e+000 6.000000e+001
         vertex 3.553644e+000 2.132528e-001 6.000000e+001
         vertex 3.903907e+000 1.323107e-001 6.000000e+001
      endloop
   endfacet
   facet normal 0.000000e+000 -3.491481e-015 1.000000e+000
      outer loop
         vertex 9.478765e+000 3.992352e+000 6.000000e+001
         vertex 8.940758e+000 7.120411e+000 6.000000e+001
         vertex 9.404466e+000 3.640619e+000 6.000000e+001
      endloop
   endfacet
   facet normal 0.000000e+000 -3.491481e-015 1.000000e+000
      outer loop
         vertex 9.404466e+000 3.640619e+000 6.000000e+001
         vertex 8.940758e+000 7.120411e+000 6.000000e+001
         vertex 9.303778e+000 3.295514e+000 6.000000e+001
      endloop
   endfacet
   facet normal 0.000000e+000 -3.491481e-015 1.000000e+000
      outer loop
         vertex 2.713442e+000 9.065895e+000 6.000000e+001
         vertex 2.396597e+000 8.896056e+000 6.000000e+001
         vertex 4.617753e+000 5.090237e-002 6.000000e+001
      endloop
   endfacet
   facet normal 0.000000e+000 -3.491481e-015 1.000000e+000
      outer loop
         vertex 4.617753e+000 5.090237e-002 6.000000e+001
         vertex 2.396597e+000 8.896056e+000 6.000000e+001
         vertex 2.093504e+000 8.702741e+000 6.000000e+001
      endloop
   endfacet
   facet normal 0.000000e+000 -3.491481e-015 1.000000e+000
      outer loop
         vertex 4.617753e+000 5.090237e-002 6.000000e+001
         vertex 2.093504e+000 8.702741e+000 6.000000e+001
         vertex 1.805900e+000 8.487057e+000 6.000000e+001
      endloop
   endfacet
   facet normal 0.000000e+000 -3.491481e-015 1.000000e+000
      outer loop
         vertex 1.805900e+000 8.487057e+000 6.000000e+001
         vertex 1.535431e+000 8.250239e+000 6.000000e+001
         vertex 4.617753e+000 5.090237e-002 6.000000e+001
      endloop
   endfacet
   facet normal 0.000000e+000 -3.491481e-015 1.000000e+000
      outer loop
         vertex 4.617753e+000 5.090237e-002 6.000000e+001
         vertex 1.535431e+000 8.250239e+000 6.000000e+001
         vertex 1.283648e+000 7.993644e+000 6.000000e+001
      endloop
   endfacet
   facet normal 0.000000e+000 -3.491481e-015 1.000000e+000
      outer loop
         vertex 4.617753e+000 5.090237e-002 6.000000e+001
         vertex 1.283648e+000 7.993644e+000 6.000000e+001
         vertex 1.051991e+000 7.718742e+000 6.000000e+001
      endloop
   endfacet
   facet normal 0.000000e+000 -3.491481e-015 1.000000e+000
      outer loop
         vertex 2.376130e-001 6.127886e+000 6.000000e+001
         vertex 1.500566e-001 5.779218e+000 6.000000e+001
         vertex 4.617753e+000 5.090237e-002 6.000000e+001
      endloop
   endfacet
   facet normal 0.000000e+000 -3.491481e-015 1.000000e+000
      outer loop
         vertex 4.617753e+000 5.090237e-002 6.000000e+001
         vertex 1.500566e-001 5.779218e+000 6.000000e+001
         vertex 8.912058e-002 5.424926e+000 6.000000e+001
      endloop
   endfacet
   facet normal 0.000000e+000 -3.491481e-015 1.000000e+000
      outer loop
         vertex 4.617753e+000 5.090237e-002 6.000000e+001
         vertex 8.912058e-002 5.424926e+000 6.000000e+001
         vertex 5.515385e-002 5.067040e+000 6.000000e+001
      endloop
   endfacet
   facet normal 0.000000e+000 -3.491481e-015 1.000000e+000
      outer loop
         vertex 1.162356e-001 3.992352e+000 6.000000e+001
         vertex 1.905351e-001 3.640619e+000 6.000000e+001
         vertex 4.617753e+000 5.090237e-002 6.000000e+001
      endloop
   endfacet
   facet normal 0.000000e+000 -3.491481e-015 1.000000e+000
      outer loop
         vertex 4.617753e+000 5.090237e-002 6.000000e+001
         vertex 1.905351e-001 3.640619e+000 6.000000e+001
         vertex 2.912227e-001 3.295514e+000 6.000000e+001
      endloop
   endfacet
   facet normal 0.000000e+000 -3.491481e-015 1.000000e+000
      outer loop
         vertex 4.617753e+000 5.090237e-002 6.000000e+001
         vertex 2.912227e-001 3.295514e+000 6.000000e+001
         vertex 4.259289e+000 7.809047e-002 6.000000e+001
      endloop
   endfacet
   facet normal 0.000000e+000 -3.491481e-015 1.000000e+000
      outer loop
         vertex 4.259289e+000 7.809047e-002 6.000000e+001
         vertex 2.912227e-001 3.295514e+000 6.000000e+001
         vertex 3.903907e+000 1.323107e-001 6.000000e+001
      endloop
   endfacet
   facet normal 0.000000e+000 -3.491481e-015 1.000000e+000
      outer loop
         vertex 8.849887e+000 2.319465e+000 6.000000e+001
         vertex 9.025693e+000 2.633039e+000 6.000000e+001
         vertex 8.940758e+000 7.120411e+000 6.000000e+001
      endloop
   endfacet
   facet normal 0.000000e+000 -3.491481e-015 1.000000e+000
      outer loop
         vertex 8.940758e+000 7.120411e+000 6.000000e+001
         vertex 9.025693e+000 2.633039e+000 6.000000e+001
         vertex 9.177279e+000 2.959011e+000 6.000000e+001
      endloop
   endfacet
   facet normal 0.000000e+000 -3.491481e-015 1.000000e+000
      outer loop
         vertex 8.940758e+000 7.120411e+000 6.000000e+001
         vertex 9.177279e+000 2.959011e+000 6.000000e+001
         vertex 9.303778e+000 3.295514e+000 6.000000e+001
      endloop
   endfacet
   facet normal 0.000000e+000 -3.491481e-015 1.000000e+000
      outer loop
         vertex 8.849887e+000 2.319465e+000 6.000000e+001
         vertex 8.940758e+000 7.120411e+000 6.000000e+001
         vertex 8.650871e+000 2.020086e+000 6.000000e+001
      endloop
   endfacet
   facet normal 0.000000e+000 -3.491481e-015 1.000000e+000
      outer loop
         vertex 8.650871e+000 2.020086e+000 6.000000e+001
         vertex 8.940758e+000 7.120411e+000 6.000000e+001
         vertex 8.753212e+000 7.427108e+000 6.000000e+001
      endloop
   endfacet
   facet normal 0.000000e+000 -3.491481e-015 1.000000e+000
      outer loop
         vertex 8.650871e+000 2.020086e+000 6.000000e+001
         vertex 8.753212e+000 7.427108e+000 6.000000e+001
         vertex 8.543010e+000 7.718742e+000 6.000000e+001
      endloop
   endfacet
   facet normal 0.000000e+000 -3.491481e-015 1.000000e+000
      outer loop
         vertex 8.650871e+000 2.020086e+000 6.000000e+001
         vertex 7.789100e+000 8.487057e+000 6.000000e+001
         vertex 7.501496e+000 8.702741e+000 6.000000e+001
      endloop
   endfacet
   facet normal 0.000000e+000 -3.491481e-015 1.000000e+000
      outer loop
         vertex 6.552776e+000 9.211286e+000 6.000000e+001
         vertex 6.213940e+000 9.331394e+000 6.000000e+001
         vertex 8.650871e+000 2.020086e+000 6.000000e+001
      endloop
   endfacet
   facet normal 0.000000e+000 -3.491481e-015 1.000000e+000
      outer loop
         vertex 8.650871e+000 2.020086e+000 6.000000e+001
         vertex 6.213940e+000 9.331394e+000 6.000000e+001
         vertex 5.866991e+000 9.425533e+000 6.000000e+001
      endloop
   endfacet
   facet normal 0.000000e+000 -3.491481e-015 1.000000e+000
      outer loop
         vertex 1.051991e+000 7.718742e+000 6.000000e+001
         vertex 8.417876e-001 7.427108e+000 6.000000e+001
         vertex 4.617753e+000 5.090237e-002 6.000000e+001
      endloop
   endfacet
   facet normal 0.000000e+000 -3.491481e-015 1.000000e+000
      outer loop
         vertex 4.617753e+000 5.090237e-002 6.000000e+001
         vertex 8.417876e-001 7.427108e+000 6.000000e+001
         vertex 6.542425e-001 7.120411e+000 6.000000e+001
      endloop
   endfacet
   facet normal 0.000000e+000 -3.491481e-015 1.000000e+000
      outer loop
         vertex 4.617753e+000 5.090237e-002 6.000000e+001
         vertex 6.542425e-001 7.120411e+000 6.000000e+001
         vertex 4.904298e-001 6.800409e+000 6.000000e+001
      endloop
   endfacet
   facet normal 0.000000e+000 -3.491481e-015 1.000000e+000
      outer loop
         vertex 5.515385e-002 5.067040e+000 6.000000e+001
         vertex 4.835054e-002 4.707611e+000 6.000000e+001
         vertex 4.617753e+000 5.090237e-002 6.000000e+001
      endloop
   endfacet
   facet normal 0.000000e+000 -3.491481e-015 1.000000e+000
      outer loop
         vertex 4.617753e+000 5.090237e-002 6.000000e+001
         vertex 4.835054e-002 4.707611e+000 6.000000e+001
         vertex 6.875023e-002 4.348696e+000 6.000000e+001
      endloop
   endfacet
   facet normal 0.000000e+000 -3.491481e-015 1.000000e+000
      outer loop
         vertex 4.617753e+000 5.090237e-002 6.000000e+001
         vertex 6.875023e-002 4.348696e+000 6.000000e+001
         vertex 1.162356e-001 3.992352e+000 6.000000e+001
      endloop
   endfacet
   facet normal 0.000000e+000 -3.491481e-015 1.000000e+000
      outer loop
         vertex 9.478765e+000 3.992352e+000 6.000000e+001
         vertex 9.526250e+000 4.348696e+000 6.000000e+001
         vertex 8.940758e+000 7.120411e+000 6.000000e+001
      endloop
   endfacet
   facet normal 0.000000e+000 -3.491481e-015 1.000000e+000
      outer loop
         vertex 8.940758e+000 7.120411e+000 6.000000e+001
         vertex 9.526250e+000 4.348696e+000 6.000000e+001
         vertex 9.546650e+000 4.707611e+000 6.000000e+001
      endloop
   endfacet
   facet normal 0.000000e+000 -3.491481e-015 1.000000e+000
      outer loop
         vertex 8.940758e+000 7.120411e+000 6.000000e+001
         vertex 9.546650e+000 4.707611e+000 6.000000e+001
         vertex 9.104570e+000 6.800409e+000 6.000000e+001
      endloop
   endfacet
   facet normal 0.000000e+000 -3.491481e-015 1.000000e+000
      outer loop
         vertex 9.104570e+000 6.800409e+000 6.000000e+001
         vertex 9.546650e+000 4.707611e+000 6.000000e+001
         vertex 9.243712e+000 6.468935e+000 6.000000e+001
      endloop
   endfacet
   facet normal 0.000000e+000 -3.491481e-015 1.000000e+000
      outer loop
         vertex 8.543010e+000 7.718742e+000 6.000000e+001
         vertex 8.311353e+000 7.993644e+000 6.000000e+001
         vertex 8.650871e+000 2.020086e+000 6.000000e+001
      endloop
   endfacet
   facet normal 0.000000e+000 -3.491481e-015 1.000000e+000
      outer loop
         vertex 8.650871e+000 2.020086e+000 6.000000e+001
         vertex 8.311353e+000 7.993644e+000 6.000000e+001
         vertex 8.059568e+000 8.250239e+000 6.000000e+001
      endloop
   endfacet
   facet normal 0.000000e+000 -3.491481e-015 1.000000e+000
      outer loop
         vertex 8.650871e+000 2.020086e+000 6.000000e+001
         vertex 8.059568e+000 8.250239e+000 6.000000e+001
         vertex 7.789100e+000 8.487057e+000 6.000000e+001
      endloop
   endfacet
   facet normal 0.000000e+000 -3.491481e-015 1.000000e+000
      outer loop
         vertex 7.501496e+000 8.702741e+000 6.000000e+001
         vertex 7.198403e+000 8.896056e+000 6.000000e+001
         vertex 8.650871e+000 2.020086e+000 6.000000e+001
      endloop
   endfacet
   facet normal 0.000000e+000 -3.491481e-015 1.000000e+000
      outer loop
         vertex 8.650871e+000 2.020086e+000 6.000000e+001
         vertex 7.198403e+000 8.896056e+000 6.000000e+001
         vertex 6.881558e+000 9.065895e+000 6.000000e+001
      endloop
   endfacet
   facet normal 0.000000e+000 -3.491481e-015 1.000000e+000
      outer loop
         vertex 8.650871e+000 2.020086e+000 6.000000e+001
         vertex 6.881558e+000 9.065895e+000 6.000000e+001
         vertex 6.552776e+000 9.211286e+000 6.000000e+001
      endloop
   endfacet
   facet normal 0.000000e+000 -3.491481e-015 1.000000e+000
      outer loop
         vertex 5.866991e+000 9.425533e+000 6.000000e+001
         vertex 5.513916e+000 9.493163e+000 6.000000e+001
         vertex 8.650871e+000 2.020086e+000 6.000000e+001
      endloop
   endfacet
   facet normal 0.000000e+000 -3.491481e-015 1.000000e+000
      outer loop
         vertex 8.650871e+000 2.020086e+000 6.000000e+001
         vertex 5.513916e+000 9.493163e+000 6.000000e+001
         vertex 5.156737e+000 9.533896e+000 6.000000e+001
      endloop
   endfacet
   facet normal 0.000000e+000 -3.491481e-015 1.000000e+000
      outer loop
         vertex 8.650871e+000 2.020086e+000 6.000000e+001
         vertex 5.156737e+000 9.533896e+000 6.000000e+001
         vertex 4.797500e+000 9.547500e+000 6.000000e+001
      endloop
   endfacet
   facet normal 0.000000e+000 -3.491481e-015 1.000000e+000
      outer loop
         vertex 4.177219e-001 2.959011e+000 6.000000e+001
         vertex 2.553412e+000 6.110254e-001 6.000000e+001
         vertex 2.912227e-001 3.295514e+000 6.000000e+001
      endloop
   endfacet
   facet normal 0.000000e+000 -3.491481e-015 1.000000e+000
      outer loop
         vertex 2.912227e-001 3.295514e+000 6.000000e+001
         vertex 2.553412e+000 6.110254e-001 6.000000e+001
         vertex 2.876457e+000 4.532980e-001 6.000000e+001
      endloop
   endfacet
   facet normal 0.000000e+000 -3.491481e-015 1.000000e+000
      outer loop
         vertex 2.912227e-001 3.295514e+000 6.000000e+001
         vertex 2.876457e+000 4.532980e-001 6.000000e+001
         vertex 3.210505e+000 3.204532e-001 6.000000e+001
      endloop
   endfacet
   facet normal 0.000000e+000 -3.491481e-015 1.000000e+000
      outer loop
         vertex 4.177219e-001 2.959011e+000 6.000000e+001
         vertex 5.693077e-001 2.633039e+000 6.000000e+001
         vertex 2.553412e+000 6.110254e-001 6.000000e+001
      endloop
   endfacet
   facet normal 0.000000e+000 -3.491481e-015 1.000000e+000
      outer loop
         vertex 2.553412e+000 6.110254e-001 6.000000e+001
         vertex 5.693077e-001 2.633039e+000 6.000000e+001
         vertex 7.451125e-001 2.319465e+000 6.000000e+001
      endloop
   endfacet
   facet normal 0.000000e+000 -3.491481e-015 1.000000e+000
      outer loop
         vertex 2.553412e+000 6.110254e-001 6.000000e+001
         vertex 7.451125e-001 2.319465e+000 6.000000e+001
         vertex 9.441292e-001 2.020086e+000 6.000000e+001
      endloop
   endfacet
   facet normal 0.000000e+000 -3.491481e-015 1.000000e+000
      outer loop
         vertex 1.407111e+000 1.470675e+000 6.000000e+001
         vertex 1.668425e+000 1.223793e+000 6.000000e+001
         vertex 1.947661e+000 9.973794e-001 6.000000e+001
      endloop
   endfacet
   facet normal 0.000000e+000 -3.491481e-015 1.000000e+000
      outer loop
         vertex 9.546650e+000 4.707611e+000 6.000000e+001
         vertex 9.539846e+000 5.067040e+000 6.000000e+001
         vertex 9.243712e+000 6.468935e+000 6.000000e+001
      endloop
   endfacet
   facet normal 0.000000e+000 -3.491481e-015 1.000000e+000
      outer loop
         vertex 9.243712e+000 6.468935e+000 6.000000e+001
         vertex 9.539846e+000 5.067040e+000 6.000000e+001
         vertex 9.505879e+000 5.424926e+000 6.000000e+001
      endloop
   endfacet
   facet normal 0.000000e+000 -3.491481e-015 1.000000e+000
      outer loop
         vertex 9.243712e+000 6.468935e+000 6.000000e+001
         vertex 9.505879e+000 5.424926e+000 6.000000e+001
         vertex 9.357388e+000 6.127886e+000 6.000000e+001
      endloop
   endfacet
   facet normal 0.000000e+000 -3.491481e-015 1.000000e+000
      outer loop
         vertex 9.357388e+000 6.127886e+000 6.000000e+001
         vertex 9.505879e+000 5.424926e+000 6.000000e+001
         vertex 9.444943e+000 5.779218e+000 6.000000e+001
      endloop
   endfacet
   facet normal 0.000000e+000 -3.491481e-015 1.000000e+000
      outer loop
         vertex 9.441292e-001 2.020086e+000 6.000000e+001
         vertex 1.165218e+000 1.736614e+000 6.000000e+001
         vertex 2.553412e+000 6.110254e-001 6.000000e+001
      endloop
   endfacet
   facet normal 0.000000e+000 -3.491481e-015 1.000000e+000
      outer loop
         vertex 2.553412e+000 6.110254e-001 6.000000e+001
         vertex 1.165218e+000 1.736614e+000 6.000000e+001
         vertex 1.407111e+000 1.470675e+000 6.000000e+001
      endloop
   endfacet
   facet normal 0.000000e+000 -3.491481e-015 1.000000e+000
      outer loop
         vertex 2.553412e+000 6.110254e-001 6.000000e+001
         vertex 1.407111e+000 1.470675e+000 6.000000e+001
         vertex 2.243221e+000 7.927330e-001 6.000000e+001
      endloop
   endfacet
   facet normal 0.000000e+000 -3.491481e-015 1.000000e+000
      outer loop
         vertex 2.243221e+000 7.927330e-001 6.000000e+001
         vertex 1.407111e+000 1.470675e+000 6.000000e+001
         vertex 1.947661e+000 9.973794e-001 6.000000e+001
      endloop
   endfacet
   facet normal 0.000000e+000 3.491481e-015 -1.000000e+000
      outer loop
         vertex 5.335711e+000 7.809047e-002 1.042977e-015
         vertex 4.977247e+000 5.090237e-002 9.480504e-016
         vertex 4.797500e+000 9.547500e+000 3.410524e-014
      endloop
   endfacet
   facet normal 0.000000e+000 3.491481e-015 -1.000000e+000
      outer loop
         vertex 4.797500e+000 9.547500e+000 3.410524e-014
         vertex 4.977247e+000 5.090237e-002 9.480504e-016
         vertex 4.797500e+000 4.750025e-002 9.361719e-016
      endloop
   endfacet
   facet normal 0.000000e+000 3.491481e-015 -1.000000e+000
      outer loop
         vertex 4.797500e+000 9.547500e+000 3.410524e-014
         vertex 4.797500e+000 4.750025e-002 9.361719e-016
         vertex 4.617753e+000 5.090237e-002 9.480504e-016
      endloop
   endfacet
   facet normal 0.000000e+000 3.491481e-015 -1.000000e+000
      outer loop
         vertex 8.429783e+000 1.736614e+000 6.833681e-015
         vertex 8.187889e+000 1.470675e+000 5.905162e-015
         vertex 8.940758e+000 7.120412e+000 2.563111e-014
      endloop
   endfacet
   facet normal 0.000000e+000 3.491481e-015 -1.000000e+000
      outer loop
         vertex 8.940758e+000 7.120412e+000 2.563111e-014
         vertex 8.187889e+000 1.470675e+000 5.905162e-015
         vertex 8.753212e+000 7.427108e+000 2.670194e-014
      endloop
   endfacet
   facet normal 0.000000e+000 3.491481e-015 -1.000000e+000
      outer loop
         vertex 1.500566e-001 5.779218e+000 2.094836e-014
         vertex 2.376130e-001 6.127886e+000 2.216573e-014
         vertex 2.396597e+000 8.896056e+000 3.183074e-014
      endloop
   endfacet
   facet normal 0.000000e+000 3.491481e-015 -1.000000e+000
      outer loop
         vertex 7.926576e+000 1.223793e+000 5.043174e-015
         vertex 7.647339e+000 9.973794e-001 4.252658e-015
         vertex 4.797500e+000 9.547500e+000 3.410524e-014
      endloop
   endfacet
   facet normal 0.000000e+000 3.491481e-015 -1.000000e+000
      outer loop
         vertex 4.797500e+000 9.547500e+000 3.410524e-014
         vertex 7.647339e+000 9.973794e-001 4.252658e-015
         vertex 7.351779e+000 7.927330e-001 3.538138e-015
      endloop
   endfacet
   facet normal 0.000000e+000 3.491481e-015 -1.000000e+000
      outer loop
         vertex 2.713442e+000 9.065896e+000 3.242373e-014
         vertex 3.042224e+000 9.211286e+000 3.293136e-014
         vertex 4.617753e+000 5.090237e-002 9.480504e-016
      endloop
   endfacet
   facet normal 0.000000e+000 3.491481e-015 -1.000000e+000
      outer loop
         vertex 4.617753e+000 5.090237e-002 9.480504e-016
         vertex 3.042224e+000 9.211286e+000 3.293136e-014
         vertex 3.381060e+000 9.331394e+000 3.335072e-014
      endloop
   endfacet
   facet normal 0.000000e+000 3.491481e-015 -1.000000e+000
      outer loop
         vertex 4.617753e+000 5.090237e-002 9.480504e-016
         vertex 3.381060e+000 9.331394e+000 3.335072e-014
         vertex 3.728009e+000 9.425533e+000 3.367940e-014
      endloop
   endfacet
   facet normal 0.000000e+000 3.491481e-015 -1.000000e+000
      outer loop
         vertex 5.513916e+000 9.493163e+000 3.391553e-014
         vertex 5.866991e+000 9.425533e+000 3.367940e-014
         vertex 8.187889e+000 1.470675e+000 5.905162e-015
      endloop
   endfacet
   facet normal 0.000000e+000 3.491481e-015 -1.000000e+000
      outer loop
         vertex 8.187889e+000 1.470675e+000 5.905162e-015
         vertex 7.789100e+000 8.487057e+000 3.040273e-014
         vertex 8.059568e+000 8.250239e+000 2.957588e-014
      endloop
   endfacet
   facet normal 0.000000e+000 3.491481e-015 -1.000000e+000
      outer loop
         vertex 7.351779e+000 7.927330e-001 3.538138e-015
         vertex 7.041588e+000 6.110254e-001 2.903709e-015
         vertex 4.797500e+000 9.547500e+000 3.410524e-014
      endloop
   endfacet
   facet normal 0.000000e+000 3.491481e-015 -1.000000e+000
      outer loop
         vertex 4.797500e+000 9.547500e+000 3.410524e-014
         vertex 7.041588e+000 6.110254e-001 2.903709e-015
         vertex 6.718544e+000 4.532980e-001 2.353007e-015
      endloop
   endfacet
   facet normal 0.000000e+000 3.491481e-015 -1.000000e+000
      outer loop
         vertex 4.797500e+000 9.547500e+000 3.410524e-014
         vertex 6.718544e+000 4.532980e-001 2.353007e-015
         vertex 6.384495e+000 3.204532e-001 1.889182e-015
      endloop
   endfacet
   facet normal 0.000000e+000 3.491481e-015 -1.000000e+000
      outer loop
         vertex 6.384495e+000 3.204532e-001 1.889182e-015
         vertex 6.041357e+000 2.132528e-001 1.514894e-015
         vertex 4.797500e+000 9.547500e+000 3.410524e-014
      endloop
   endfacet
   facet normal 0.000000e+000 3.491481e-015 -1.000000e+000
      outer loop
         vertex 4.797500e+000 9.547500e+000 3.410524e-014
         vertex 6.041357e+000 2.132528e-001 1.514894e-015
         vertex 5.691093e+000 1.323107e-001 1.232286e-015
      endloop
   endfacet
   facet normal 0.000000e+000 3.491481e-015 -1.000000e+000
      outer loop
         vertex 4.797500e+000 9.547500e+000 3.410524e-014
         vertex 5.691093e+000 1.323107e-001 1.232286e-015
         vertex 5.335711e+000 7.809047e-002 1.042977e-015
      endloop
   endfacet
   facet normal 0.000000e+000 3.491481e-015 -1.000000e+000
      outer loop
         vertex 2.713442e+000 9.065896e+000 3.242373e-014
         vertex 4.617753e+000 5.090237e-002 9.480504e-016
         vertex 2.396597e+000 8.896056e+000 3.183074e-014
      endloop
   endfacet
   facet normal 0.000000e+000 3.491481e-015 -1.000000e+000
      outer loop
         vertex 2.396597e+000 8.896056e+000 3.183074e-014
         vertex 4.617753e+000 5.090237e-002 9.480504e-016
         vertex 4.259289e+000 7.809047e-002 1.042977e-015
      endloop
   endfacet
   facet normal 0.000000e+000 3.491481e-015 -1.000000e+000
      outer loop
         vertex 2.396597e+000 8.896056e+000 3.183074e-014
         vertex 4.259289e+000 7.809047e-002 1.042977e-015
         vertex 3.903907e+000 1.323107e-001 1.232286e-015
      endloop
   endfacet
   facet normal 0.000000e+000 3.491481e-015 -1.000000e+000
      outer loop
         vertex 1.500566e-001 5.779218e+000 2.094836e-014
         vertex 2.396597e+000 8.896056e+000 3.183074e-014
         vertex 8.912058e-002 5.424926e+000 1.971135e-014
      endloop
   endfacet
   facet normal 0.000000e+000 3.491481e-015 -1.000000e+000
      outer loop
         vertex 1.051991e+000 7.718743e+000 2.772017e-014
         vertex 1.283648e+000 7.993644e+000 2.867999e-014
         vertex 1.535431e+000 8.250239e+000 2.957588e-014
      endloop
   endfacet
   facet normal 0.000000e+000 3.491481e-015 -1.000000e+000
      outer loop
         vertex 3.728009e+000 9.425533e+000 3.367940e-014
         vertex 4.081085e+000 9.493163e+000 3.391553e-014
         vertex 4.617753e+000 5.090237e-002 9.480504e-016
      endloop
   endfacet
   facet normal 0.000000e+000 3.491481e-015 -1.000000e+000
      outer loop
         vertex 4.617753e+000 5.090237e-002 9.480504e-016
         vertex 4.081085e+000 9.493163e+000 3.391553e-014
         vertex 4.438263e+000 9.533896e+000 3.405774e-014
      endloop
   endfacet
   facet normal 0.000000e+000 3.491481e-015 -1.000000e+000
      outer loop
         vertex 4.617753e+000 5.090237e-002 9.480504e-016
         vertex 4.438263e+000 9.533896e+000 3.405774e-014
         vertex 4.797500e+000 9.547500e+000 3.410524e-014
      endloop
   endfacet
   facet normal 0.000000e+000 3.491481e-015 -1.000000e+000
      outer loop
         vertex 7.926576e+000 1.223793e+000 5.043174e-015
         vertex 4.797500e+000 9.547500e+000 3.410524e-014
         vertex 8.187889e+000 1.470675e+000 5.905162e-015
      endloop
   endfacet
   facet normal 0.000000e+000 3.491481e-015 -1.000000e+000
      outer loop
         vertex 8.187889e+000 1.470675e+000 5.905162e-015
         vertex 4.797500e+000 9.547500e+000 3.410524e-014
         vertex 5.156737e+000 9.533896e+000 3.405774e-014
      endloop
   endfacet
   facet normal 0.000000e+000 3.491481e-015 -1.000000e+000
      outer loop
         vertex 8.187889e+000 1.470675e+000 5.905162e-015
         vertex 5.156737e+000 9.533896e+000 3.405774e-014
         vertex 5.513916e+000 9.493163e+000 3.391553e-014
      endloop
   endfacet
   facet normal 0.000000e+000 3.491481e-015 -1.000000e+000
      outer loop
         vertex 5.866991e+000 9.425533e+000 3.367940e-014
         vertex 6.213940e+000 9.331394e+000 3.335072e-014
         vertex 8.187889e+000 1.470675e+000 5.905162e-015
      endloop
   endfacet
   facet normal 0.000000e+000 3.491481e-015 -1.000000e+000
      outer loop
         vertex 8.187889e+000 1.470675e+000 5.905162e-015
         vertex 6.213940e+000 9.331394e+000 3.335072e-014
         vertex 6.552776e+000 9.211286e+000 3.293136e-014
      endloop
   endfacet
   facet normal 0.000000e+000 3.491481e-015 -1.000000e+000
      outer loop
         vertex 8.187889e+000 1.470675e+000 5.905162e-015
         vertex 6.552776e+000 9.211286e+000 3.293136e-014
         vertex 6.881558e+000 9.065896e+000 3.242373e-014
      endloop
   endfacet
   facet normal 0.000000e+000 3.491481e-015 -1.000000e+000
      outer loop
         vertex 9.303778e+000 3.295514e+000 1.227655e-014
         vertex 9.177279e+000 2.959011e+000 1.110166e-014
         vertex 8.940758e+000 7.120412e+000 2.563111e-014
      endloop
   endfacet
   facet normal 0.000000e+000 3.491481e-015 -1.000000e+000
      outer loop
         vertex 8.940758e+000 7.120412e+000 2.563111e-014
         vertex 9.177279e+000 2.959011e+000 1.110166e-014
         vertex 9.025693e+000 2.633039e+000 9.963533e-015
      endloop
   endfacet
   facet normal 0.000000e+000 3.491481e-015 -1.000000e+000
      outer loop
         vertex 3.903907e+000 1.323107e-001 1.232286e-015
         vertex 3.553644e+000 2.132528e-001 1.514894e-015
         vertex 2.396597e+000 8.896056e+000 3.183074e-014
      endloop
   endfacet
   facet normal 0.000000e+000 3.491481e-015 -1.000000e+000
      outer loop
         vertex 2.396597e+000 8.896056e+000 3.183074e-014
         vertex 3.553644e+000 2.132528e-001 1.514894e-015
         vertex 3.210505e+000 3.204532e-001 1.889182e-015
      endloop
   endfacet
   facet normal 0.000000e+000 3.491481e-015 -1.000000e+000
      outer loop
         vertex 2.396597e+000 8.896056e+000 3.183074e-014
         vertex 3.210505e+000 3.204532e-001 1.889182e-015
         vertex 2.876457e+000 4.532980e-001 2.353007e-015
      endloop
   endfacet
   facet normal 0.000000e+000 3.491481e-015 -1.000000e+000
      outer loop
         vertex 2.876457e+000 4.532980e-001 2.353007e-015
         vertex 2.553412e+000 6.110254e-001 2.903709e-015
         vertex 2.396597e+000 8.896056e+000 3.183074e-014
      endloop
   endfacet
   facet normal 0.000000e+000 3.491481e-015 -1.000000e+000
      outer loop
         vertex 2.396597e+000 8.896056e+000 3.183074e-014
         vertex 2.553412e+000 6.110254e-001 2.903709e-015
         vertex 2.243221e+000 7.927330e-001 3.538138e-015
      endloop
   endfacet
   facet normal 0.000000e+000 3.491481e-015 -1.000000e+000
      outer loop
         vertex 2.396597e+000 8.896056e+000 3.183074e-014
         vertex 2.243221e+000 7.927330e-001 3.538138e-015
         vertex 1.947661e+000 9.973794e-001 4.252658e-015
      endloop
   endfacet
   facet normal 0.000000e+000 3.491481e-015 -1.000000e+000
      outer loop
         vertex 1.905351e-001 3.640620e+000 1.348148e-014
         vertex 1.162356e-001 3.992352e+000 1.470955e-014
         vertex 2.396597e+000 8.896056e+000 3.183074e-014
      endloop
   endfacet
   facet normal 0.000000e+000 3.491481e-015 -1.000000e+000
      outer loop
         vertex 2.396597e+000 8.896056e+000 3.183074e-014
         vertex 1.162356e-001 3.992352e+000 1.470955e-014
         vertex 6.875023e-002 4.348696e+000 1.595371e-014
      endloop
   endfacet
   facet normal 0.000000e+000 3.491481e-015 -1.000000e+000
      outer loop
         vertex 6.881558e+000 9.065896e+000 3.242373e-014
         vertex 7.198403e+000 8.896056e+000 3.183074e-014
         vertex 8.187889e+000 1.470675e+000 5.905162e-015
      endloop
   endfacet
   facet normal 0.000000e+000 3.491481e-015 -1.000000e+000
      outer loop
         vertex 8.187889e+000 1.470675e+000 5.905162e-015
         vertex 7.198403e+000 8.896056e+000 3.183074e-014
         vertex 7.501496e+000 8.702741e+000 3.115578e-014
      endloop
   endfacet
   facet normal 0.000000e+000 3.491481e-015 -1.000000e+000
      outer loop
         vertex 8.187889e+000 1.470675e+000 5.905162e-015
         vertex 7.501496e+000 8.702741e+000 3.115578e-014
         vertex 7.789100e+000 8.487057e+000 3.040273e-014
      endloop
   endfacet
   facet normal 0.000000e+000 3.491481e-015 -1.000000e+000
      outer loop
         vertex 9.025693e+000 2.633039e+000 9.963533e-015
         vertex 8.849887e+000 2.319465e+000 8.868696e-015
         vertex 8.940758e+000 7.120412e+000 2.563111e-014
      endloop
   endfacet
   facet normal 0.000000e+000 3.491481e-015 -1.000000e+000
      outer loop
         vertex 8.940758e+000 7.120412e+000 2.563111e-014
         vertex 8.849887e+000 2.319465e+000 8.868696e-015
         vertex 8.650871e+000 2.020086e+000 7.823417e-015
      endloop
   endfacet
   facet normal 0.000000e+000 3.491481e-015 -1.000000e+000
      outer loop
         vertex 8.940758e+000 7.120412e+000 2.563111e-014
         vertex 8.650871e+000 2.020086e+000 7.823417e-015
         vertex 8.429783e+000 1.736614e+000 6.833681e-015
      endloop
   endfacet
   facet normal 0.000000e+000 3.491481e-015 -1.000000e+000
      outer loop
         vertex 6.875023e-002 4.348696e+000 1.595371e-014
         vertex 4.835054e-002 4.707611e+000 1.720686e-014
         vertex 2.396597e+000 8.896056e+000 3.183074e-014
      endloop
   endfacet
   facet normal 0.000000e+000 3.491481e-015 -1.000000e+000
      outer loop
         vertex 2.396597e+000 8.896056e+000 3.183074e-014
         vertex 4.835054e-002 4.707611e+000 1.720686e-014
         vertex 5.515385e-002 5.067040e+000 1.846180e-014
      endloop
   endfacet
   facet normal 0.000000e+000 3.491481e-015 -1.000000e+000
      outer loop
         vertex 2.396597e+000 8.896056e+000 3.183074e-014
         vertex 5.515385e-002 5.067040e+000 1.846180e-014
         vertex 8.912058e-002 5.424926e+000 1.971135e-014
      endloop
   endfacet
   facet normal 0.000000e+000 3.491481e-015 -1.000000e+000
      outer loop
         vertex 1.051991e+000 7.718743e+000 2.772017e-014
         vertex 1.535431e+000 8.250239e+000 2.957588e-014
         vertex 8.417876e-001 7.427108e+000 2.670194e-014
      endloop
   endfacet
   facet normal 0.000000e+000 3.491481e-015 -1.000000e+000
      outer loop
         vertex 2.376130e-001 6.127886e+000 2.216573e-014
         vertex 3.512874e-001 6.468935e+000 2.335649e-014
         vertex 2.396597e+000 8.896056e+000 3.183074e-014
      endloop
   endfacet
   facet normal 0.000000e+000 3.491481e-015 -1.000000e+000
      outer loop
         vertex 2.396597e+000 8.896056e+000 3.183074e-014
         vertex 3.512874e-001 6.468935e+000 2.335649e-014
         vertex 4.904298e-001 6.800409e+000 2.451383e-014
      endloop
   endfacet
   facet normal 0.000000e+000 3.491481e-015 -1.000000e+000
      outer loop
         vertex 2.396597e+000 8.896056e+000 3.183074e-014
         vertex 4.904298e-001 6.800409e+000 2.451383e-014
         vertex 2.093504e+000 8.702741e+000 3.115578e-014
      endloop
   endfacet
   facet normal 0.000000e+000 3.491481e-015 -1.000000e+000
      outer loop
         vertex 2.093504e+000 8.702741e+000 3.115578e-014
         vertex 4.904298e-001 6.800409e+000 2.451383e-014
         vertex 1.805900e+000 8.487057e+000 3.040273e-014
      endloop
   endfacet
   facet normal 0.000000e+000 3.491481e-015 -1.000000e+000
      outer loop
         vertex 8.059568e+000 8.250239e+000 2.957588e-014
         vertex 8.311353e+000 7.993644e+000 2.867999e-014
         vertex 8.187889e+000 1.470675e+000 5.905162e-015
      endloop
   endfacet
   facet normal 0.000000e+000 3.491481e-015 -1.000000e+000
      outer loop
         vertex 8.187889e+000 1.470675e+000 5.905162e-015
         vertex 8.311353e+000 7.993644e+000 2.867999e-014
         vertex 8.543010e+000 7.718743e+000 2.772017e-014
      endloop
   endfacet
   facet normal 0.000000e+000 3.491481e-015 -1.000000e+000
      outer loop
         vertex 8.187889e+000 1.470675e+000 5.905162e-015
         vertex 8.543010e+000 7.718743e+000 2.772017e-014
         vertex 8.753212e+000 7.427108e+000 2.670194e-014
      endloop
   endfacet
   facet normal 0.000000e+000 3.491481e-015 -1.000000e+000
      outer loop
         vertex 9.539846e+000 5.067040e+000 1.846180e-014
         vertex 9.243712e+000 6.468935e+000 2.335649e-014
         vertex 9.505879e+000 5.424926e+000 1.971135e-014
      endloop
   endfacet
   facet normal 0.000000e+000 3.491481e-015 -1.000000e+000
      outer loop
         vertex 9.505879e+000 5.424926e+000 1.971135e-014
         vertex 9.243712e+000 6.468935e+000 2.335649e-014
         vertex 9.357388e+000 6.127886e+000 2.216573e-014
      endloop
   endfacet
   facet normal 0.000000e+000 3.491481e-015 -1.000000e+000
      outer loop
         vertex 9.505879e+000 5.424926e+000 1.971135e-014
         vertex 9.357388e+000 6.127886e+000 2.216573e-014
         vertex 9.444943e+000 5.779218e+000 2.094836e-014
      endloop
   endfacet
   facet normal 0.000000e+000 3.491481e-015 -1.000000e+000
      outer loop
         vertex 9.539846e+000 5.067040e+000 1.846180e-014
         vertex 9.546650e+000 4.707611e+000 1.720686e-014
         vertex 9.243712e+000 6.468935e+000 2.335649e-014
      endloop
   endfacet
   facet normal 0.000000e+000 3.491481e-015 -1.000000e+000
      outer loop
         vertex 9.243712e+000 6.468935e+000 2.335649e-014
         vertex 9.546650e+000 4.707611e+000 1.720686e-014
         vertex 9.526250e+000 4.348696e+000 1.595371e-014
      endloop
   endfacet
   facet normal 0.000000e+000 3.491481e-015 -1.000000e+000
      outer loop
         vertex 9.243712e+000 6.468935e+000 2.335649e-014
         vertex 9.526250e+000 4.348696e+000 1.595371e-014
         vertex 9.478765e+000 3.992352e+000 1.470955e-014
      endloop
   endfacet
   facet normal 0.000000e+000 3.491481e-015 -1.000000e+000
      outer loop
         vertex 8.940758e+000 7.120412e+000 2.563111e-014
         vertex 9.104570e+000 6.800409e+000 2.451383e-014
         vertex 9.303778e+000 3.295514e+000 1.227655e-014
      endloop
   endfacet
   facet normal 0.000000e+000 3.491481e-015 -1.000000e+000
      outer loop
         vertex 9.303778e+000 3.295514e+000 1.227655e-014
         vertex 9.104570e+000 6.800409e+000 2.451383e-014
         vertex 9.243712e+000 6.468935e+000 2.335649e-014
      endloop
   endfacet
   facet normal 0.000000e+000 3.491481e-015 -1.000000e+000
      outer loop
         vertex 9.303778e+000 3.295514e+000 1.227655e-014
         vertex 9.243712e+000 6.468935e+000 2.335649e-014
         vertex 9.404466e+000 3.640620e+000 1.348148e-014
      endloop
   endfacet
   facet normal 0.000000e+000 3.491481e-015 -1.000000e+000
      outer loop
         vertex 9.404466e+000 3.640620e+000 1.348148e-014
         vertex 9.243712e+000 6.468935e+000 2.335649e-014
         vertex 9.478765e+000 3.992352e+000 1.470955e-014
      endloop
   endfacet
   facet normal 0.000000e+000 3.491481e-015 -1.000000e+000
      outer loop
         vertex 1.805900e+000 8.487057e+000 3.040273e-014
         vertex 4.904298e-001 6.800409e+000 2.451383e-014
         vertex 1.535431e+000 8.250239e+000 2.957588e-014
      endloop
   endfacet
   facet normal 0.000000e+000 3.491481e-015 -1.000000e+000
      outer loop
         vertex 1.535431e+000 8.250239e+000 2.957588e-014
         vertex 4.904298e-001 6.800409e+000 2.451383e-014
         vertex 6.542425e-001 7.120412e+000 2.563111e-014
      endloop
   endfacet
   facet normal 0.000000e+000 3.491481e-015 -1.000000e+000
      outer loop
         vertex 1.535431e+000 8.250239e+000 2.957588e-014
         vertex 6.542425e-001 7.120412e+000 2.563111e-014
         vertex 8.417876e-001 7.427108e+000 2.670194e-014
      endloop
   endfacet
   facet normal 0.000000e+000 3.491481e-015 -1.000000e+000
      outer loop
         vertex 1.947661e+000 9.973794e-001 4.252658e-015
         vertex 1.668425e+000 1.223793e+000 5.043174e-015
         vertex 2.396597e+000 8.896056e+000 3.183074e-014
      endloop
   endfacet
   facet normal 0.000000e+000 3.491481e-015 -1.000000e+000
      outer loop
         vertex 2.396597e+000 8.896056e+000 3.183074e-014
         vertex 1.668425e+000 1.223793e+000 5.043174e-015
         vertex 1.407111e+000 1.470675e+000 5.905162e-015
      endloop
   endfacet
   facet normal 0.000000e+000 3.491481e-015 -1.000000e+000
      outer loop
         vertex 2.396597e+000 8.896056e+000 3.183074e-014
         vertex 1.407111e+000 1.470675e+000 5.905162e-015
         vertex 1.165218e+000 1.736614e+000 6.833681e-015
      endloop
   endfacet
   facet normal 0.000000e+000 3.491481e-015 -1.000000e+000
      outer loop
         vertex 1.165218e+000 1.736614e+000 6.833681e-015
         vertex 9.441292e-001 2.020086e+000 7.823417e-015
         vertex 2.396597e+000 8.896056e+000 3.183074e-014
      endloop
   endfacet
   facet normal 0.000000e+000 3.491481e-015 -1.000000e+000
      outer loop
         vertex 2.396597e+000 8.896056e+000 3.183074e-014
         vertex 9.441292e-001 2.020086e+000 7.823417e-015
         vertex 7.451125e-001 2.319465e+000 8.868696e-015
      endloop
   endfacet
   facet normal 0.000000e+000 3.491481e-015 -1.000000e+000
      outer loop
         vertex 2.396597e+000 8.896056e+000 3.183074e-014
         vertex 7.451125e-001 2.319465e+000 8.868696e-015
         vertex 5.693077e-001 2.633039e+000 9.963533e-015
      endloop
   endfacet
   facet normal 0.000000e+000 3.491481e-015 -1.000000e+000
      outer loop
         vertex 5.693077e-001 2.633039e+000 9.963533e-015
         vertex 4.177219e-001 2.959011e+000 1.110166e-014
         vertex 2.396597e+000 8.896056e+000 3.183074e-014
      endloop
   endfacet
   facet normal 0.000000e+000 3.491481e-015 -1.000000e+000
      outer loop
         vertex 2.396597e+000 8.896056e+000 3.183074e-014
         vertex 4.177219e-001 2.959011e+000 1.110166e-014
         vertex 2.912227e-001 3.295514e+000 1.227655e-014
      endloop
   endfacet
   facet normal 0.000000e+000 3.491481e-015 -1.000000e+000
      outer loop
         vertex 2.396597e+000 8.896056e+000 3.183074e-014
         vertex 2.912227e-001 3.295514e+000 1.227655e-014
         vertex 1.905351e-001 3.640620e+000 1.348148e-014
      endloop
   endfacet
endsolid